<svg xmlns="http://www.w3.org/2000/svg" width="448" height="140" viewBox="0 0 448 140">
  <metadata><?xpacket begin="﻿" id="W5M0MpCehiHzreSzNTczkc9d"?>
<x:xmpmeta xmlns:x="adobe:ns:meta/" x:xmptk="Adobe XMP Core 5.6-c138 79.159824, 2016/09/14-01:09:01        ">
   <rdf:RDF xmlns:rdf="http://www.w3.org/1999/02/22-rdf-syntax-ns#">
      <rdf:Description rdf:about=""/>
   </rdf:RDF>
</x:xmpmeta>
                                                                                                    
                                                                                                    
                                                                                                    
                                                                                                    
                                                                                                    
                                                                                                    
                                                                                                    
                                                                                                    
                                                                                                    
                                                                                                    
                                                                                                    
                                                                                                    
                                                                                                    
                                                                                                    
                                                                                                    
                                                                                                    
                                                                                                    
                                                                                                    
                                                                                                    
                                                                                                    
                           
<?xpacket end="w"?></metadata>
<defs>
    <style>
      .cls-1 {
        fill: #7f9cf5;
        fill-rule: evenodd;
      }
    </style>
  </defs>
  <path id="_1stSight" data-name="1stSight" class="cls-1" d="M62.419,40.411q-3.225,5.458-6.852,11.937t-6.6,12.805a132.671,132.671,0,0,0-5.209,12.712q-4.4,12.65-4.4,18.665a8.729,8.729,0,0,0,1.612,5.457q1.612,2.109,6.387,4.465a5.786,5.786,0,0,0,2.884.744q1.023-.123,1.023-1.922a17.345,17.345,0,0,0-.434-3.163,23.49,23.49,0,0,1-.434-2.418q0-3.782,3.628-14.294T64.961,58.7q2.728-5.891,4.558-9.8A73.765,73.765,0,0,0,72.4,41.961a17.005,17.005,0,0,0,1.054-5.519,16.89,16.89,0,0,0-3.411-9.488q-3.846,2.109-6.852,4.093T57.365,35.2q-2.823,2.171-5.116,4.031t-4.527,3.845v5.085a99.842,99.842,0,0,1,14.7-7.751h0ZM73.672,97.027a13.313,13.313,0,0,0,3.628,5.7q4.961,4.962,10.79,4.961,4.526,0,10.79-4a92.542,92.542,0,0,0,14.2-11.752V87.788q-4.092,3.411-7.162,5.55A34.477,34.477,0,0,1,99.9,96.748a13.919,13.919,0,0,1-5.488,1.271,22.778,22.778,0,0,1-3.535-.372A58.575,58.575,0,0,0,100,90.609a26.652,26.652,0,0,0,5.4-7.193,17.443,17.443,0,0,0,1.86-7.845,22.11,22.11,0,0,0-.5-4.9q-0.5-2.17-1.395-5.364a19.8,19.8,0,0,1-.9-4.372,6.99,6.99,0,0,1,.248-2.108l-0.372-1.178a6.271,6.271,0,0,0-2.79-.744q-5.209,0-6.573,7.627-6.016,6.76-22.014,23.627v1.488A30.339,30.339,0,0,0,73.672,97.027Zm22.51-15.875q0.03,0.5.031,1.116,0,5.209-2.264,8.216a15.026,15.026,0,0,1-6.48,4.744,34.308,34.308,0,0,0-3.845-5.271q-1.365-1.363-5.085-2.17Q91.127,75.448,94.973,71.106l1.116,9.054Q96.15,80.657,96.182,81.152Zm33.546-24.836a9.563,9.563,0,0,0-4.465,2.263,22.615,22.615,0,0,0-3.876,5.147q-2.544,4.093-2.542,6.139c0,0.248.082,0.372,0.248,0.372a3.462,3.462,0,0,0,.9-0.217q0.651-.216,1.395-0.4a22.144,22.144,0,0,1,5.457-.5q1.116,0,1.923.031c0.536,0.021,1.116.052,1.736,0.093q-9.241,13.706-15.751,19.162v4.279Q115.5,92,116.24,91.353t1.4-1.24c0.435-.392.909-0.826,1.427-1.3s1.064-.961,1.643-1.457q-2.481,6.388-3.442,9.55a19.216,19.216,0,0,0-.961,5.457,8.761,8.761,0,0,0,1.7,5.581,5.44,5.44,0,0,0,4.5,2.171q8,0,24.743-18.17V87.788q-6.387,5.209-10.2,7.721t-6.17,2.511q-3.411,0-3.411-4.279a20.687,20.687,0,0,1,1.21-6.7,53.878,53.878,0,0,1,3.472-7.782q2.264-4.247,5.612-9.643,1.735,0.125,2.946.217l2.387,0.186q1.178,0.093,2.915.217a97.549,97.549,0,0,0,8.867-13.457q-0.93-.123-2.573-0.31t-3.752-.434a53.565,53.565,0,0,1,4.031-5.519q2.665-3.286,2.667-4.031,0-1.549-3.411-1.55a8.734,8.734,0,0,0-6.077,2.45,34.468,34.468,0,0,0-5.953,8.34h-2.667A35.889,35.889,0,0,0,129.728,56.317Zm74.194,39.036a50.746,50.746,0,0,1-12.588,2.915,168.627,168.627,0,0,1-18.294.806q-12.835,0-12.836-1.3A0.864,0.864,0,0,1,160.669,97a7.2,7.2,0,0,1,1.24-.558q0.775-.279,2.016-0.775l0.5-.248a1.652,1.652,0,0,0,.434-0.31,0.536,0.536,0,0,0,.186-0.372q0-.744-2.481-0.589a16.88,16.88,0,0,0-5.147,1.209,11.938,11.938,0,0,0-5.271,5.3q-2.232,3.939-2.232,5.8,0,4.153,6.6,6.2t17.457,2.047a104.466,104.466,0,0,0,12.371-.775,100.853,100.853,0,0,0,12.03-2.14,62.226,62.226,0,0,0,9.209-2.914,28.718,28.718,0,0,0,7.565-4.9,21.16,21.16,0,0,0,4.992-6.543,16.341,16.341,0,0,0,1.706-7.1,12.628,12.628,0,0,0-4.341-9.3q-4.341-4.154-13.333-8a99.909,99.909,0,0,0-14.2-4.837q-7.94-2.108-10.263-3.008a3.149,3.149,0,0,1-2.326-3.07q0-3.472,5.612-6.821t15.348-5.4a103.139,103.139,0,0,1,21.208-2.046q3.781,0,3.783.806,0,0.5-3.411,2.294A21.523,21.523,0,0,0,214.5,54.7q-2.2,2.139-2.2,3.194a0.5,0.5,0,0,0,.62.5,7.868,7.868,0,0,0,2.542-1.364,52.068,52.068,0,0,1,4.93-2.853,53.06,53.06,0,0,1,6.791-2.852,42.777,42.777,0,0,0,5.116-2.263,7.775,7.775,0,0,0,2.728-3.38,16.431,16.431,0,0,0,1.271-7.193q0-2.852-4.868-4.217t-13.8-1.364a87.488,87.488,0,0,0-26.882,3.845q-11.939,3.846-16.526,8.992a23.533,23.533,0,0,0-4.682,8.589,34.43,34.43,0,0,0-1.83,10.945,5.681,5.681,0,0,0,1.055,3.1,6.136,6.136,0,0,0,1.984,2.108,65.616,65.616,0,0,0,23.378,8.124,45.163,45.163,0,0,1,8.093,2.077,27.074,27.074,0,0,1,6.976,3.69,15.959,15.959,0,0,1,4.651,5.147A35.194,35.194,0,0,1,203.922,95.353Zm61.2-38.385q2.543-3.224,2.543-5.891a4.3,4.3,0,0,0-1.24-3.318,4.4,4.4,0,0,0-3.1-1.147q-2.79,0-5.395,3.349t-2.605,6.077a3.73,3.73,0,0,0,1.4,2.977,4.5,4.5,0,0,0,2.945,1.178Q262.583,60.192,265.125,56.968ZM254.8,94.764a12.546,12.546,0,0,1-6.418,2.139,6.291,6.291,0,0,1-4.341-1.488,4.772,4.772,0,0,1-1.674-3.721,7.224,7.224,0,0,1,1.643-4.651,97.95,97.95,0,0,1,7.039-7.255,27.286,27.286,0,0,0,4.372-6.015q2.448-4.216,2.449-6.2,0-2.914-3.783-2.915-7.317,0-16.123,13.7-1.86,3.039-2.542,4.465a17.349,17.349,0,0,0-1.179,3.628,20.947,20.947,0,0,0-.5,4.62,27.292,27.292,0,0,0,2.481,11.658q2.479,5.334,7.565,5.333,3.659,0,8.868-3.937a63.3,63.3,0,0,0,11.224-11.689V87.912A79.033,79.033,0,0,1,254.8,94.764Zm60.366-6.728L300.159,98.95q5.892-12.339,8.155-17.766t2.263-8.279a3.067,3.067,0,0,0-.775-2.263,2.728,2.728,0,0,0-2.015-.775q-2.172,0-4.868,2.7a102.513,102.513,0,0,0-6.821,7.814,73.963,73.963,0,0,1-6.605,7.41,96.1,96.1,0,0,1-8.247,7.007,8.922,8.922,0,0,1-4.961,1.984,2.583,2.583,0,0,1-2.108-.992,4.1,4.1,0,0,1-.807-2.666q0-3.41,3.194-7.658a39.489,39.489,0,0,1,8.372-8.031,54.911,54.911,0,0,1,10.449-6.077Q304,67.51,304,63.479q0-2.914-3.969-2.914-5.334,0-14.944,6.015a67.2,67.2,0,0,0-8.868,6.356,46.867,46.867,0,0,0-6.232,6.356,25.667,25.667,0,0,0-3.6,5.829,13.439,13.439,0,0,0-1.147,5.209,22,22,0,0,0,2.666,10.387q2.665,5.055,5.829,5.054a13.187,13.187,0,0,0,6.543-2.139,49.321,49.321,0,0,0,7.968-6.109q4.34-3.968,10.17-10.17-2.729,6.7-8.93,19.347-1.24,1.056-4.65,3.876t-5.488,4.713a60.81,60.81,0,0,0-4.4,4.5,45.979,45.979,0,0,0-4.124,5.333q-4.527,6.944-4.527,11.41,0,2.293,1.86,2.294,3.473,0,10.6-7.41T294.578,109l20.588-16.93V88.036Zm35.282,7.876q-2.79,0-2.79-2.915a10.738,10.738,0,0,1,1.426-4.744,45.427,45.427,0,0,1,4.062-6.263q2.636-3.5,7.1-8.837a3.016,3.016,0,0,0,.62-1.55,6.754,6.754,0,0,0-1.612-3.628q-1.613-2.2-3.473-2.2-1.984,0-6.2,3.008a94.661,94.661,0,0,0-10.294,8.9q-6.078,5.892-14.386,15.131V85.369q4.961-5.456,8.836-10.139t8.558-10.666q4.682-5.984,7.038-9.24t8-11.255q5.208-7.565,7.348-11.131t2.14-5.116a1.94,1.94,0,0,0-1.334-1.55,9.546,9.546,0,0,0-3.5-.868q-1.737-.124-6.822,5.178a175.012,175.012,0,0,0-12.805,15.627q-7.721,10.325-18.573,26.572-5.147,7.752-6.325,12.464a35.763,35.763,0,0,0-1.178,8.62q0,11.906,4.837,11.906a3.565,3.565,0,0,0,2.48-1.426q1.3-1.426,5.023-6.17t7.752-9.271q1.3-1.549,3.224-3.752a35.761,35.761,0,0,1,4.4-4.217,36.365,36.365,0,0,1,5.271-3.566A120.449,120.449,0,0,0,340.62,91.6q-3.009,6.046-3.008,10.635,0,5.706,4.837,5.7a10.127,10.127,0,0,0,4.992-1.8,50.248,50.248,0,0,0,6.883-5.3q3.938-3.5,9.333-9.023V87.912q-10.231,8-13.209,8h0Zm30.105-39.594a9.563,9.563,0,0,0-4.465,2.263,22.615,22.615,0,0,0-3.876,5.147q-2.543,4.093-2.542,6.139c0,0.248.082,0.372,0.248,0.372a3.462,3.462,0,0,0,.9-0.217q0.651-.216,1.395-0.4a22.144,22.144,0,0,1,5.457-.5q1.116,0,1.923.031c0.536,0.021,1.116.052,1.736,0.093q-9.241,13.706-15.751,19.162v4.279q0.744-.682,1.488-1.333t1.395-1.24c0.435-.392.909-0.826,1.427-1.3s1.064-.961,1.643-1.457q-2.481,6.388-3.442,9.55a19.216,19.216,0,0,0-.961,5.457,8.761,8.761,0,0,0,1.7,5.581,5.44,5.44,0,0,0,4.5,2.171q8,0,24.743-18.17V87.788q-6.387,5.209-10.2,7.721T381.7,98.02q-3.411,0-3.411-4.279a20.687,20.687,0,0,1,1.21-6.7,53.878,53.878,0,0,1,3.472-7.782q2.264-4.247,5.612-9.643,1.735,0.125,2.946.217l2.387,0.186q1.178,0.093,2.915.217A97.549,97.549,0,0,0,405.7,56.782q-0.93-.123-2.573-0.31t-3.752-.434a53.565,53.565,0,0,1,4.031-5.519q2.665-3.286,2.667-4.031,0-1.549-3.411-1.55a8.734,8.734,0,0,0-6.077,2.45,34.468,34.468,0,0,0-5.953,8.34h-2.667A35.889,35.889,0,0,0,380.553,56.317Z"/>
</svg>
