<svg xmlns="http://www.w3.org/2000/svg" width="448" height="140" viewBox="0 0 448 140">
  <metadata><?xpacket begin="﻿" id="W5M0MpCehiHzreSzNTczkc9d"?>
<x:xmpmeta xmlns:x="adobe:ns:meta/" x:xmptk="Adobe XMP Core 5.6-c138 79.159824, 2016/09/14-01:09:01        ">
   <rdf:RDF xmlns:rdf="http://www.w3.org/1999/02/22-rdf-syntax-ns#">
      <rdf:Description rdf:about=""/>
   </rdf:RDF>
</x:xmpmeta>
                                                                                                    
                                                                                                    
                                                                                                    
                                                                                                    
                                                                                                    
                                                                                                    
                                                                                                    
                                                                                                    
                                                                                                    
                                                                                                    
                                                                                                    
                                                                                                    
                                                                                                    
                                                                                                    
                                                                                                    
                                                                                                    
                                                                                                    
                                                                                                    
                                                                                                    
                                                                                                    
                           
<?xpacket end="w"?></metadata>
<defs>
    <style>
      .cls-1 {
        fill: #7f9cf5;
        fill-rule: evenodd;
      }
    </style>
  </defs>
  <path id="Gitscape" class="cls-1" d="M81.774,83c0-4,0-5.7,8.7-6.8v-4h-33.1v4c9.1,1.2,9.5,3.7,9.5,6.8V94.1c0,7.8-5.6,11.8-12.8,11.8-8.4,0-17.8-12.1-17.8-35.7,0-22.9,9-34.4,20.1-34.4,12.4,0,18.7,12.6,21.6,24.9l4.6-1.5-1.9-28.3c-1.9,1.8-5.5,5.2-7.2,5.2a0.749,0.749,0,0,1-.5-0.1c-6.8-3.6-11.1-4.9-17.6-4.9-23,0-36.7,19.6-36.7,39.1,0,26.2,12.9,40.4,35.4,40.4a34.052,34.052,0,0,0,13.2-2.4c2.2-.8,4.6-2.2,7.1-2.2,1.2,0,7.4.7,7.4,0.7V83Zm-41.7,20c-10.4-4.6-16.4-15.3-16.4-32.8,0-11.6,5.4-22.9,14.7-29.1-4.6,6.9-7.1,17-7.1,29.1C31.271,84.2,34.671,95.8,40.072,103Zm36.7-1.8c-1-.1-2-0.2-2.4-0.2a10.462,10.462,0,0,0-3.6.6l-0.5.1a18.082,18.082,0,0,0,1.6-7.6V83a11.658,11.658,0,0,0-1.2-5.8h7a12.864,12.864,0,0,0-.9,5.8v18.2Zm-0.3-58.1a27.522,27.522,0,0,0-1.9-2.8,10.426,10.426,0,0,0,1.6-.6Zm43.3,65.8v-3.8c-6.3-.4-6.6-2.7-6.6-5.7V58.1l-21.1,2V64c0.9,0.1,5.9.4,6.8,1.3,0.6,0.6.7,1.7,0.7,5.8V99.4c0,3-.2,5.3-6.6,5.7v3.8h26.8Zm-4.7-67.2a9.051,9.051,0,1,0-9,9A9.049,9.049,0,0,0,115.071,41.694Zm-11.2,62.2a12.068,12.068,0,0,0,.7-4.5V71.1a21.541,21.541,0,0,0-.8-7.1l4.4-.4V99.4a14.322,14.322,0,0,0,.6,4.5h-4.9Zm6.2-62.2a4.012,4.012,0,0,1-4,4,4.1,4.1,0,0,1-4.1-4,4.185,4.185,0,0,1,4.1-4.1A4.1,4.1,0,0,1,110.07,41.694Zm48.5,54.7c-2.8,4.3-5.2,7.2-8.3,7.2-2.9,0-4.5-.9-4.5-6.5V65.4h12.9V60.1h-12.9v-20.1h-4.4a31.388,31.388,0,0,1-17,20.5v4.9h7V96.7c0,8.2,5.9,13.7,14.1,13.7,7.5,0,12-2.3,15.4-8.7Zm-17.8.7a14.585,14.585,0,0,0,1.9,8c-4-1-6.3-4.1-6.3-8.4V60.4h-2.8a28.866,28.866,0,0,0,7.2-7.2V97.1Zm64.6-20.6-1.2-17.8s-1.7.1-2.7,0.1a28.894,28.894,0,0,1-2.7,4.4l-0.2-.2a24.7,24.7,0,0,0-14.3-4.4c-7.9,0-17.7,4.3-17.7,15.9,0,11.9,14.1,15,22.8,18,2.8,1,8.8,3,8.8,6.6,0,2.4-1.8,6.7-10.8,6.7-12.2,0-17.8-14.2-18.2-15.4l-3.9,1.1,1.8,19.3a24.978,24.978,0,0,0,2.8.2c0.9-1.6,1.8-3.3,2.8-4.9,2.2,1.3,8.1,4.5,14,4.5,9.3,0,21-2.9,21-16.8,0-11.6-13.2-14.4-21.8-17.3-3.1-1-9.4-2.9-9.4-7.1s4.6-6.1,9-6.1c7,0,13.4,6.7,16.1,14.2Zm-2.8,19.3c-2.5-5.8-11.7-8.1-17.1-9.9-6.2-2-13.9-4.2-13.9-11.6a9.738,9.738,0,0,1,.2-2.4c2,7.1,12.4,9.2,18.4,11.2,5.8,2,12.5,4.1,12.5,11.1A9.151,9.151,0,0,1,202.57,95.8Zm54.3,0.6c-5.4,6-10.3,7.9-14.5,7.9-7.7,0-12.9-4.7-12.9-21.1s5.9-20.2,10.7-20.2c1.7,0,2.5,1,2.9,3,0.4,2.1.3,4.7,0.6,6.6,0.6,4.1,3.5,6.4,6.8,6.4,7.1,0,8.3-5.4,8.3-8.2,0-7.5-7.6-12.3-18.6-12.3-13.5,0-25.1,11.8-25.1,27.2,0,15.8,11,25,24.7,25,7.9,0,14.3-2.8,19.9-10.1Zm-9-31.7c5.1,1.9,5.9,4.6,5.9,6.1,0,1.7-.4,3.2-3.3,3.2-0.6,0-1.6-.3-1.8-2.2-0.3-2-.2-4.6-0.7-6.8Zm-18.8,38.3c-5.4-3.2-9-9-9-17.3a23.138,23.138,0,0,1,6.2-16,46.43,46.43,0,0,0-1.8,13.5C224.467,92,225.967,98.6,229.067,103Zm84.7-8.2c-1.4,3.9-3.7,6.5-5,6.5a0.651,0.651,0,0,1-.8-0.5V72.2c0-9-8.2-13.6-20.2-13.6-8.4,0-20.4,3.8-20.4,13a6.994,6.994,0,0,0,6.9,7c6.7,0,7.2-7.4,7.2-12.5,0-1.1,1.3-3,5.5-3,5.2,0,6.7,3.8,6.7,8.8v7.6c-10.1.7-28.7,3.2-28.7,18.3,0,8.7,7.7,12.8,15.4,12.8a19.945,19.945,0,0,0,13.8-5.2c1.5,3.4,5.2,5,9.7,5,6.4,0,11.3-5.7,13.2-11.9Zm-20.1,4.2c-2.5,3.5-6,5.3-8.9,5.3-3.1,0-5.7-2-5.7-6.8,0-9.4,6.8-12.5,14.6-13V99Zm9.3-.5c0,3.6.4,5.3,2.3,6.7a6.752,6.752,0,0,1-1.4.2c-2.9,0-4.6-1.1-5.2-4.9V71.9a20.991,20.991,0,0,0-1.1-6.8c3.9,1.6,5.4,4.2,5.4,7.1V98.5Zm-26.6,6.7c-4-1.1-6.4-3.8-6.4-7.4,0-4.9,2.7-7.8,6.6-9.8a18.494,18.494,0,0,0-2.5,9.5A12.576,12.576,0,0,0,276.366,105.2Zm0.2-35.1c0,1.7-.3,3.5-2.3,3.5a1.988,1.988,0,0,1-1.9-2c0-1.9,1.4-3.9,4.1-5.4,0,0.8.1,1.7,0.1,2.6v1.3Zm71.1,57.2v-3.8c-6.3-.4-6.6-2.7-6.6-5.7V105.1c3.4,2.5,7.7,2.9,11.1,2.9,12.1,0,23.4-6.7,23.4-24.7,0-18.8-13.4-24.7-22.1-24.7a17.393,17.393,0,0,0-12.4,5.3V58.4l-21.1,2v3.9c7.3,0.8,7.5.9,7.5,4.4v49.1c0,3.1-.2,5.3-6.6,5.7v3.8h26.8Zm14.4-61.4c4.6,2.7,8.5,7.9,8.5,17.4,0,9.6-3.6,14.9-8.6,17.6,2.6-4.6,3.6-10.9,3.6-17.6C365.567,76.8,364.667,70.5,362.066,65.9Zm-21,8c0-2.9,4.5-9.5,10-9.5,6.2,0,9.5,6.3,9.5,18.9,0,11.3-2.5,19.6-10.8,19.6-2.9,0-8.7-3.2-8.7-6.7V73.9Zm-9.2,48.4a14.321,14.321,0,0,0,.6-4.5V71.4a21.541,21.541,0,0,0-.8-7.1l4.4-.4v53.9a14.321,14.321,0,0,0,.6,4.5h-4.8Zm92.1-26.3c-5.1,5.9-10.9,8-15,8-11.7,0-12.7-13.8-12.7-18.9v-1h30.4c0-21.1-15.7-25.5-22.2-25.5-5.5,0-22.6,3.3-22.6,26.5,0,11.6,5.8,25.4,23.1,25.4,9,0,16.1-3.8,22-9.8Zm-7.7-16.8a64.371,64.371,0,0,0-3.2-13.2c3.8,2.2,7.3,6.2,8.3,13.2h-5.1Zm-19.7.3c0.3-3.8,2.1-16.6,8.3-16.6,5.4,0,6.5,12.8,6.7,16.6h-15Zm1.8,25c-8.3-2.8-11.5-11-11.5-19.4,0-10.8,4.3-16.3,8.7-18.9a44.549,44.549,0,0,0-3.9,18.5C391.663,92.1,393.564,99.5,398.364,104.5Z"/>
</svg>
