<svg xmlns="http://www.w3.org/2000/svg" width="448" height="140" viewBox="0 0 448 140">
  <metadata><?xpacket begin="﻿" id="W5M0MpCehiHzreSzNTczkc9d"?>
<x:xmpmeta xmlns:x="adobe:ns:meta/" x:xmptk="Adobe XMP Core 5.6-c138 79.159824, 2016/09/14-01:09:01        ">
   <rdf:RDF xmlns:rdf="http://www.w3.org/1999/02/22-rdf-syntax-ns#">
      <rdf:Description rdf:about=""/>
   </rdf:RDF>
</x:xmpmeta>
                                                                                                    
                                                                                                    
                                                                                                    
                                                                                                    
                                                                                                    
                                                                                                    
                                                                                                    
                                                                                                    
                                                                                                    
                                                                                                    
                                                                                                    
                                                                                                    
                                                                                                    
                                                                                                    
                                                                                                    
                                                                                                    
                                                                                                    
                                                                                                    
                                                                                                    
                                                                                                    
                           
<?xpacket end="w"?></metadata>
<defs>
    <style>
      .cls-1 {
        fill: #7f9cf5;
        fill-rule: evenodd;
      }
    </style>
  </defs>
  <path id="K-Hole" class="cls-1" d="M57.562,108.9V81.329h0.17L75.191,108.9h40.484L81.223,59.919,57.731,79.927V41.907H19.8V108.9H57.562Zm43.925-66.227-0.085-.765H68.776L81.223,59.919ZM123.192,83.75a16.576,16.576,0,0,1-.977,5.947,16.046,16.046,0,0,1-3.356,5.013h46.006a17.845,17.845,0,0,1-3.4-5.013,12.419,12.419,0,0,1-1.1-5.14,14.87,14.87,0,0,1,1.1-5.735,19.158,19.158,0,0,1,3.483-5.353H118.859a15.016,15.016,0,0,1,4.333,10.28h0ZM210.445,108.9V77.845h5.565V108.9h38.02V41.907H216.1V72.28H210.53V41.907H172.68V108.9h37.765Zm87.848,0.34a29.469,29.469,0,0,0,13.891-3.228,24.586,24.586,0,0,0,9.686-8.921,23.79,23.79,0,0,0,3.483-12.744,25.552,25.552,0,0,0-2-10.068,24.132,24.132,0,0,0-5.693-8.029,24.966,24.966,0,0,0-8.623-5.183,31.707,31.707,0,0,0-11-1.827h-0.977v50h1.232Zm-8.708-50a28.422,28.422,0,0,0-10.323,1.869,25.58,25.58,0,0,0-8.454,5.31,24.207,24.207,0,0,0-7.646,17.842,23.912,23.912,0,0,0,3.526,12.7,24.488,24.488,0,0,0,9.6,9.006,28.524,28.524,0,0,0,13.594,3.271h1.359v-50h-1.656Zm71.96,49.659V42.332h-26.89V108.9h26.89Zm61.043-12.489a21.7,21.7,0,0,1-3.4,3.951q-6.414,6.117-17.119,6.117-1.4,0-4.716-.255V58.941h-1.019a26.736,26.736,0,0,0-9.941,1.869,25.478,25.478,0,0,0-8.156,5.353A24.685,24.685,0,0,0,370.762,84a25.159,25.159,0,0,0,1.784,9.516,24.546,24.546,0,0,0,5.182,7.987,21.4,21.4,0,0,0,5.863,4.375,27.328,27.328,0,0,0,7.306,2.507,45.6,45.6,0,0,0,9.176.849,38.272,38.272,0,0,0,15.038-2.676,21.051,21.051,0,0,0,8.029-5.862,18.879,18.879,0,0,0,2.8-3.824,37.723,37.723,0,0,0,2.209-5.225l-2.592-1.189a44.068,44.068,0,0,1-2.973,5.947h0Zm6.372-17.247a20.18,20.18,0,0,0-2.337-6.5,25.263,25.263,0,0,0-4.375-5.947,24.253,24.253,0,0,0-8.454-5.65,17.839,17.839,0,0,0-4.545-1.487,59.073,59.073,0,0,0-6.2-.722V83.75h26.338a41.262,41.262,0,0,0-.425-4.588h0Z"/>
</svg>
