<svg xmlns="http://www.w3.org/2000/svg" width="448" height="140" viewBox="0 0 448 140">
  <metadata><?xpacket begin="﻿" id="W5M0MpCehiHzreSzNTczkc9d"?>
<x:xmpmeta xmlns:x="adobe:ns:meta/" x:xmptk="Adobe XMP Core 5.6-c138 79.159824, 2016/09/14-01:09:01        ">
   <rdf:RDF xmlns:rdf="http://www.w3.org/1999/02/22-rdf-syntax-ns#">
      <rdf:Description rdf:about=""/>
   </rdf:RDF>
</x:xmpmeta>
                                                                                                    
                                                                                                    
                                                                                                    
                                                                                                    
                                                                                                    
                                                                                                    
                                                                                                    
                                                                                                    
                                                                                                    
                                                                                                    
                                                                                                    
                                                                                                    
                                                                                                    
                                                                                                    
                                                                                                    
                                                                                                    
                                                                                                    
                                                                                                    
                                                                                                    
                                                                                                    
                           
<?xpacket end="w"?></metadata>
<defs>
    <style>
      .cls-1 {
        fill: #7f9cf5;
        fill-rule: evenodd;
      }
    </style>
  </defs>
  <path id="Plucky" class="cls-1" d="M159.736,34.883q-5.991-4.518-18.871-4.52h-24.86q-3.165,0-3.164,1.012,0,0.911,1.7.909h1.921a11.96,11.96,0,0,1,3.955.452q1.92,0.795,1.921,4.3v66.768q-0.114,1.812-1.017,2.264-0.792,1.017-6.1,1.017-2.373,0-2.373.793,0,1.133,3.39,1.131h25.99q1.581,0,1.582-1.13c0-.526-0.415-0.791-1.243-0.791a46.211,46.211,0,0,1-6.328-.452,2.939,2.939,0,0,1-2.486-1.921,13.791,13.791,0,0,1-.226-3.277V69.348a54.641,54.641,0,0,0,8.7.791q9.039,0,14.916-3.842,9.378-6.1,9.379-17.063,0-9.264-6.78-14.351h0ZM148.21,64.468a23.141,23.141,0,0,1-12.656,3.3,16.374,16.374,0,0,1-2.034-.113V37.4q0-2.842.678-3.524,1.467-1.592,6.215-1.593,14.238,0,14.238,17.06,0,11.031-6.441,15.124h0Zm65.653,29.288q-1.017,0-1.243,2.712-0.675,6.215-3.15,8.136-3.037,2.373-15.186,2.373-2.026,0-6.524-.113V64.843q0-4.19.339-4.871t2.147-.793q3.729-.106,3.729-0.742,0-.953-2.158-0.953H173.529q-1.477,0-1.476.793c0,0.6.413,0.906,1.243,0.906a10.413,10.413,0,0,0,1.977.113,5.345,5.345,0,0,1,1.978.228q1.017,0.339,1.017,6.681v37.941a6.27,6.27,0,0,1-.283,2.493,2,2,0,0,1-1.525.565q-4.407.318-4.407,0.954,0,0.741,1.469.741h9.266l19.323,0.226h5.311q2.6,0,4.237.17t1.752,0.169a10.62,10.62,0,0,0,1.695-.113q0.225-4.293.226-10.622,0-4.971-1.469-4.972h0Zm55.82-36.273H256.914q-1.356,0-1.356.787,0,1.012,2.589,1.012a8.4,8.4,0,0,1,3.164.339,2.017,2.017,0,0,1,.575,1.8V88.643q0,7.988-1.582,11.586-3.165,7.2-11.865,7.2-6.216,0-9.379-3.72-2.826-3.269-2.825-14.317V62.335a7.6,7.6,0,0,1,.226-2.535,1.737,1.737,0,0,1,1.469-.4q4.18,0.114,4.181-1.017,0-.9-2.034-0.9H222.223q-1.583,0-1.582.789,0,0.9,2.373.9,2.937,0,3.334.565t0.395,6.651V90.183q0,11.277,5.085,15.221,5.537,4.285,14.8,4.285,11.187,0,15.594-7.087a16.639,16.639,0,0,0,2.373-6.3,130.649,130.649,0,0,0,.452-14.061V61.428q0-2.248,1.808-2.249h2.825q1.808,0,1.808-.791,0-.9-1.808-0.9h0Zm52.544,32.431q-0.906,0-1.469,2.9-1.245,7.032-5.142,10.993a13.144,13.144,0,0,1-9.774,3.96,14.063,14.063,0,0,1-12.2-6.621q-4.521-6.621-4.52-17.956t4.068-17.956q4.068-6.621,10.961-6.621,8.247,0,11.865,6.4a32.264,32.264,0,0,1,2.712,8.98q0.339,1.684,1.243,1.684,1.128,0,1.243-4.746A77.543,77.543,0,0,1,322,59.517a9.472,9.472,0,0,0,.226-1.017,0.754,0.754,0,0,0-.791-0.9q-1.131,0-1.921,2.486-0.453,1.47-1.017,1.469a1.3,1.3,0,0,1-.9-0.452,22.749,22.749,0,0,0-14.238-4.407A23.54,23.54,0,0,0,285.5,64.078q-7.008,7.387-7.006,18.887t7.571,19.113a25.674,25.674,0,0,0,18.984,7.611q8.925,0,14.012-4.972,0.225,0.453.339,0.678l1.017,2.147q0.9,1.923,1.808,1.921a0.913,0.913,0,0,0,.9-1.13v-0.791q-0.339-3.276-.339-4.972,0-2.484.452-8.588c0.074-1.054.113-1.695,0.113-1.921q0-2.145-1.13-2.147h0Zm62.6,17.286a6.51,6.51,0,0,1-3.277-.623,32.632,32.632,0,0,1-4.181-3.8L364.036,89.305q-9.267-9.4-10.735-10.987,9.264-8.493,13.786-12.8,3.051-2.831,4.52-4.077,2.259-2.151,3.842-2.039h3.164q2.034,0.114,2.034-.961c0-.5-0.491-0.782-1.469-0.853s-4.37-.108-10.17-0.108q-4.86,0-5.65.113a0.77,0.77,0,0,0-.791.791q0,0.906,1.356.9,4.632,0,4.633.565,0,0.792-21.131,20.34V61.551a2.591,2.591,0,0,1,.4-1.864,5.552,5.552,0,0,1,2.2-.4q3.729-.111,3.729-0.9,0-.9-1.591-0.9L348.3,57.6q-4.2-.111-4.771-0.113l-7.382.113a15.832,15.832,0,0,1-1.7-.113h-1.135q-1.592,0-1.591.791,0,1.017,2.876,1.017t3.224,0.9a24.965,24.965,0,0,1,.115,3.5v37.855q0,4.182-.339,4.859t-2.6.678q-3.279-.111-3.277.9,0,0.906,1.582.9h18.758q1.695,0,1.695-.791,0-.9-1.243-0.9-3.729-.111-4.407-0.565t-0.678-3.164V83.134Q363.244,100.506,365.618,103q2.6,2.84,2.6,3.293,0,0.681-2.26.907-3.729.318-3.729,1.06,0,0.636,2.034.635h18.871a16.109,16.109,0,0,0,2.656-.113,0.7,0.7,0,0,0,.4-0.792q0-.792-1.356-0.793h0Zm43.391-49.83H421.1q-1.923,0-1.921.791,0,0.906,1.921.9h3.051q1.92,0.114,1.921,1.022,0,1.136-11.526,22.595-11.979-20.34-11.978-22.148,0-1.467,4.52-1.469,2.937,0,2.938-.791,0-.9-1.695-0.9h-21.7c-0.978,0-1.469.3-1.469,0.9,0,0.528.491,0.791,1.469,0.791q4.632,0.114,5.65,1.243,1.356,2.373,2.373,4.294t2.712,5.085l7.8,13.786q1.356,2.6,2.034,3.955v15.029q0,3.39-.508,3.955t-3.842.678q-3.335.114-3.334,1.017,0,0.792,1.469.791H422q1.581,0,1.582-.791t-2.034-.9q-3.957-.225-4.633-0.621t-0.678-2.656V89.914a23.921,23.921,0,0,1,.226-4.181,14.923,14.923,0,0,1,1.695-3.5q3.5-5.988,7.006-13.108,3.954-7.908,5.029-8.814t5.028-1.243c0.978-.074,1.469-0.339,1.469-0.791q0-1.242-8.475-.9h0Z"/>
  <path id="Kształt_1" data-name="Kształt 1" class="cls-1" d="M78.9,72.757S67.5,71.189,72.389,61.724c0,0,2-4.143,2.957-6.772,0,0,.976-7.108,5.989-5.852,0,0,.145.019,0.383,0.078a6.125,6.125,0,0,0-.683-4.6s0.2-3.715,1.322-1.7c0,0,3.124,4.693,3.172,8.666A13.566,13.566,0,0,1,88.755,58.8S91.458,71.817,78.9,72.757Zm4.185,17.264s1.235,5.657-4.64,10.18a62.471,62.471,0,0,1-13.31,5.7l-2.671.735A62.5,62.5,0,0,1,48.2,109c-7.371-.652-9.343-6.091-9.343-6.091-3.579-6.173-.017-9.016-0.017-9.016a10.1,10.1,0,0,0,5.146-7.722C41,73.808,54.1,72.182,54.1,72.182l-0.271.131s11.915-5.691,16,6.349a10.033,10.033,0,0,0,8.464,3.744S82.811,82.884,83.088,90.021ZM60.343,55.561S49.6,59.738,49.334,49.076c0,0,1.109-5.881-.668-7.366,0,0-4.175-6.992,2.426-8.038a5.692,5.692,0,0,1,1.308-.292c-0.145-1.685-.642-3.773-2.131-4.971,0,0-.891-3.608.765-2.011,0,0,4.611,3.768,5.657,7.663a14.159,14.159,0,0,1,5.565,4.5S70.877,48.637,60.343,55.561ZM38.7,62.075c-12.583-.161-10.682-13.316-10.682-13.316a14.191,14.191,0,0,1,2.346-6.879c-1.228-3.792.327-9.309,0.327-9.309,0.448-2.269,1.78,1.2,1.78,1.2-0.542,1.84.247,3.842,1.09,5.307a5.721,5.721,0,0,1,1.266-.467c6.129-2.678,6.335,5.473,6.335,5.473-0.7,2.215,3.368,6.577,3.368,6.577C49.993,59.8,38.7,62.075,38.7,62.075Zm-6.49,24.518c-11.091,5.979-15.755-6.465-15.755-6.465a15.006,15.006,0,0,1-1.32-6.193c-2.124-3.369-1.986-9.095-1.986-9.095-0.129-2.3,2.022.725,2.022,0.725a5.6,5.6,0,0,0,1.337,3.608,5.855,5.855,0,0,1,1.027-1.237c3.562-3.759,8.18,1.714,8.18,1.714,2.209,1.7,6.11,4.124,6.11,4.124C41,79.12,32.208,86.593,32.208,86.593Z"/>
</svg>
