<svg xmlns="http://www.w3.org/2000/svg" width="448" height="140" viewBox="0 0 448 140">
  <metadata><?xpacket begin="﻿" id="W5M0MpCehiHzreSzNTczkc9d"?>
<x:xmpmeta xmlns:x="adobe:ns:meta/" x:xmptk="Adobe XMP Core 5.6-c138 79.159824, 2016/09/14-01:09:01        ">
   <rdf:RDF xmlns:rdf="http://www.w3.org/1999/02/22-rdf-syntax-ns#">
      <rdf:Description rdf:about=""/>
   </rdf:RDF>
</x:xmpmeta>
                                                                                                    
                                                                                                    
                                                                                                    
                                                                                                    
                                                                                                    
                                                                                                    
                                                                                                    
                                                                                                    
                                                                                                    
                                                                                                    
                                                                                                    
                                                                                                    
                                                                                                    
                                                                                                    
                                                                                                    
                                                                                                    
                                                                                                    
                                                                                                    
                                                                                                    
                                                                                                    
                           
<?xpacket end="w"?></metadata>
<defs>
    <style>
      .cls-1 {
        fill: #7f9cf5;
        fill-rule: evenodd;
      }
    </style>
  </defs>
  <path id="REALWEB" class="cls-1" d="M45.47,108.282v-21.5h1.445a6.871,6.871,0,0,1,4.011,1.229,12.342,12.342,0,0,1,2.963,4.083l8.749,16.187H81.134L73.207,92.933a20.814,20.814,0,0,0-2.293-3.291A16.528,16.528,0,0,0,68.3,86.857,16.336,16.336,0,0,0,64.035,84.9a19.787,19.787,0,0,0,5.748-2.1,15.5,15.5,0,0,0,4.593-21.373,12.35,12.35,0,0,0-6.468-4.824q-4.011-1.3-11.6-1.3H29.03v52.971H45.47Zm0-42.275h7.19q4.48,0,6.106,1.373a5.365,5.365,0,0,1,.6,7.01,4.327,4.327,0,0,1-2.656,1.662,24.643,24.643,0,0,1-4.336.723h-6.9V66.007Zm42.346,42.275h44.66v-12H104.221V85.844H129.7V75.04H104.221V66.621h27.461V55.311H87.817v52.971Zm90.172,0H195.13l-19.9-52.971H157.371l-19.909,52.971h16.712l2.582-8.744h18.583Zm-17.678-20.2L166.1,69.042l5.847,19.042H160.311Zm41.5,20.2h41.914V95.238H218.181V55.311H201.813v52.971Zm55.9,0h16.051l9.255-33.35,9.29,33.351h16.051l11.677-52.971H304.572l-5.6,29.615-8.212-29.615H275.265l-8.192,29.654-5.6-29.654H245.929Zm69.115,0H371.49v-12H343.234V85.844h25.473V75.04H343.234V66.621H370.7V55.311H326.829v52.971Zm54.993,0h28.256a71.382,71.382,0,0,0,7.335-.723,17.288,17.288,0,0,0,6.215-1.734,14.1,14.1,0,0,0,5.239-5.2,14.451,14.451,0,0,0,1.915-7.407,12.969,12.969,0,0,0-2.692-8.4q-2.692-3.342-8.4-4.715a13.034,13.034,0,0,0,5.709-3.541,11.856,11.856,0,0,0,2.927-8.058,12.284,12.284,0,0,0-4.1-9.394q-4.1-3.794-11.761-3.794H381.822v52.971Zm16.513-42.239h7.226q3.721,0,5.222,1.3a4.532,4.532,0,0,1,1.5,3.613,4.808,4.808,0,0,1-1.5,3.812q-1.5,1.319-5.33,1.319h-7.118V66.043Zm0,20.126h8.31q4.3,0,6.016,1.427a4.669,4.669,0,0,1,1.717,3.776,5.053,5.053,0,0,1-1.735,4.029q-1.734,1.5-5.962,1.5h-8.346V86.169Z"/>
</svg>
