<svg xmlns="http://www.w3.org/2000/svg" width="448" height="140" viewBox="0 0 448 140">
  <metadata><?xpacket begin="﻿" id="W5M0MpCehiHzreSzNTczkc9d"?>
<x:xmpmeta xmlns:x="adobe:ns:meta/" x:xmptk="Adobe XMP Core 5.6-c138 79.159824, 2016/09/14-01:09:01        ">
   <rdf:RDF xmlns:rdf="http://www.w3.org/1999/02/22-rdf-syntax-ns#">
      <rdf:Description rdf:about=""/>
   </rdf:RDF>
</x:xmpmeta>
                                                                                                    
                                                                                                    
                                                                                                    
                                                                                                    
                                                                                                    
                                                                                                    
                                                                                                    
                                                                                                    
                                                                                                    
                                                                                                    
                                                                                                    
                                                                                                    
                                                                                                    
                                                                                                    
                                                                                                    
                                                                                                    
                                                                                                    
                                                                                                    
                                                                                                    
                                                                                                    
                           
<?xpacket end="w"?></metadata>
<defs>
    <style>
      .cls-1 {
        fill: #7f9cf5;
        fill-rule: evenodd;
      }
    </style>
  </defs>
  <path id="Tholio" class="cls-1" d="M56.558,111.018q0.467,0.408.878,0.82t0.761,0.819a1.172,1.172,0,0,0,.937.41,3.121,3.121,0,0,0,.527-0.351,0.641,0.641,0,0,0,.293-0.468,1.3,1.3,0,0,0-1.054-.7,5.441,5.441,0,0,0,1-1.054q0.642-.822,1.288-1.7a18.448,18.448,0,0,0,1.113-1.7,2.919,2.919,0,0,0,.468-1.171,1.137,1.137,0,0,0-.176-0.762,2.317,2.317,0,0,0-.351-0.292,2.278,2.278,0,0,1-.351-0.293,1.133,1.133,0,0,1-.176-0.762q0-.466-0.059-1.464t-0.117-2.167c-0.04-.779-0.1-1.522-0.176-2.225s-0.117-1.21-.117-1.523a2.626,2.626,0,0,0,.351-0.937q0.115-.585.234-1.23a3.292,3.292,0,0,1,.351-1.054A0.863,0.863,0,0,1,63,92.8a1.324,1.324,0,0,1,.586.117l3.279-3.4a1.557,1.557,0,0,0-.761.234,1.434,1.434,0,0,1-.644.234,2.557,2.557,0,0,1-1.874-1.113,3.3,3.3,0,0,1-.937-2.05A0.781,0.781,0,0,1,63,86.3a1.022,1.022,0,0,1,.586-0.293v-3.28a1.731,1.731,0,0,0,.82-0.644,18.841,18.841,0,0,0,1.23-1.523q0.642-.878,1.23-1.7a10.012,10.012,0,0,1,.937-1.171,1.346,1.346,0,0,0-.761.293,1.267,1.267,0,0,1-.644.293,3.929,3.929,0,0,1-2.811-2.167,7.623,7.623,0,0,1-.82-3.338h0.117c0.077,0,.117-0.018.117-0.059s0.038-.058.117-0.058a1.556,1.556,0,0,1,1.054.761,1.542,1.542,0,0,0,1.054.761,0.338,0.338,0,0,0,.234-0.117l0.469-4.1a1.57,1.57,0,0,1-.586-1.054q-0.118-.7-0.176-1.347c-0.04-.428-0.079-0.82-0.117-1.171a0.675,0.675,0,0,0-.527-0.644,7.188,7.188,0,0,1-.117,1.464,4.341,4.341,0,0,1-.351,1,0.752,0.752,0,0,1-.7.469,0.5,0.5,0,0,1-.41-0.234,3.747,3.747,0,0,0-.293-0.351q0.115-.467.234-1.054a4.1,4.1,0,0,1,.351-1.054,4.2,4.2,0,0,0,.351-1.054,1.971,1.971,0,0,0-.7-0.586,3,3,0,0,0-.7-0.351,6.677,6.677,0,0,0,1.054-1.054,1.878,1.878,0,0,0,.468-1.171,0.1,0.1,0,0,1-.117-0.117V61.18a0.738,0.738,0,0,1-.41.351c-0.2.079-.372,0.157-0.527,0.234V61.649a1.626,1.626,0,0,0-.234-0.527,1.42,1.42,0,0,1-.234-0.644Q63,59.893,63.586,59.54T64.7,58.9c0.351-.194.6-0.331,0.761-0.41a3.533,3.533,0,0,1-.117-1.054,7.785,7.785,0,0,1,.351-2.46,8.217,8.217,0,0,0,.351-2.577,7.549,7.549,0,0,0-.293-2.225,6.617,6.617,0,0,1-.293-1.991,4.5,4.5,0,0,1,.937-2.108q0.936-1.406,1.64-1.406a1.482,1.482,0,0,1,.527.293,5.461,5.461,0,0,1,.644.527h4.217a3.411,3.411,0,0,1,1.406-2.108,1.277,1.277,0,0,1,.644.82,0.639,0.639,0,0,0,.527.586,1.07,1.07,0,0,0,1.054-1,1.124,1.124,0,0,1,1.171-1,2.033,2.033,0,0,1,1.406.527,2.026,2.026,0,0,0,1.405.527,1.2,1.2,0,0,0,.469-0.234,1.213,1.213,0,0,1,.469-0.234,8.271,8.271,0,0,1,1.347-.351q1.112-.233,2.343-0.468t2.225-.41q0.994-.176,1.113-0.176v1.054a3.83,3.83,0,0,0,2.225-.644,5.7,5.7,0,0,1,1.991-.878,1.189,1.189,0,0,1,.761.234,1.865,1.865,0,0,0,1.113.234,2.853,2.853,0,0,0,1.815-.293,3.6,3.6,0,0,0,.176-1.464,2.022,2.022,0,0,0-.586-1.581,3.579,3.579,0,0,0-1.347-.761,8.618,8.618,0,0,1-1.347-.527,1.022,1.022,0,0,1-.586-1,8.351,8.351,0,0,0-.351-2.284,1.375,1.375,0,0,0-1.288-1.23,1.31,1.31,0,0,0-.7.468,1.311,1.311,0,0,1-.7.468,1.477,1.477,0,0,1-1-.527,3.36,3.36,0,0,0-1.113-.761,3.583,3.583,0,0,0,2.225-1.933,7.123,7.123,0,0,0,.586-2.87,5,5,0,0,0-1.171.176,0.719,0.719,0,0,0-.7.527,0.891,0.891,0,0,0,.293.644,0.9,0.9,0,0,1,.293.644,1.136,1.136,0,0,1-.527.879,8.608,8.608,0,0,1-1.171.761q-0.645.351-1.171,0.7a0.941,0.941,0,0,0-.527.7,0.438,0.438,0,0,0,.527.527,0.439,0.439,0,0,1,.527.527q0,0.939-1.288.937a1.15,1.15,0,0,1-1.406-1.171,3.675,3.675,0,0,1,.234-1.054,2.3,2.3,0,0,1-.41.293,1.054,1.054,0,0,1-.527.176c-0.392,0-.586-0.311-0.586-0.937a2.407,2.407,0,0,1,.059-0.586,1.63,1.63,0,0,0,.059-0.351,2.168,2.168,0,0,0,.41.293,1.043,1.043,0,0,0,.527.176,3.872,3.872,0,0,0,1.7-.644,1.8,1.8,0,0,0,1.113-1.464,1.3,1.3,0,0,0-.761-1.054,2.676,2.676,0,0,0-1.347-.468,4.228,4.228,0,0,0-2.4,1,4.1,4.1,0,0,1-2.05,1V26.393a3.164,3.164,0,0,0-.82.527,18.735,18.735,0,0,0-1.464,1.23q-0.763.7-1.405,1.347a2.774,2.774,0,0,0-.644.761l-0.468-1.874h1.288a1.1,1.1,0,0,0-.644-1.171,3.927,3.927,0,0,0-1.347-.234,0.447,0.447,0,0,0-.527.351q-0.06.351-.176,0.937a3.2,3.2,0,0,1-.586,1.23,5.35,5.35,0,0,1-1.757,1.347c0,0.468.311,0.7,0.937,0.7a1.877,1.877,0,0,0,.469-0.059,1.945,1.945,0,0,1,.468-0.059V35.3a1.1,1.1,0,0,1-.761,1.113,3.815,3.815,0,0,1-1.347.293,0.992,0.992,0,0,1-.82-0.644,5.341,5.341,0,0,1-.527-1.581q-0.176-.936-0.293-1.933a15.486,15.486,0,0,1-.117-1.815,2.412,2.412,0,0,1,.058-0.586,1.94,1.94,0,0,0,.059-0.469,17.955,17.955,0,0,0-1.874-1.23,4.866,4.866,0,0,0-2.46-.761,1.234,1.234,0,0,0,.586,1.23,1.5,1.5,0,0,1,.586,1.464,9.222,9.222,0,0,1-.234,1.991q-0.236,1.054-1.757,1.054a0.414,0.414,0,0,1-.469-0.468V27.916l0.469-.586q0-.351-0.527-0.351h-0.41a10.907,10.907,0,0,1-2.108.761q-0.821.176-1.347,0.234a4.353,4.353,0,0,0-.7.117,0.52,0.52,0,0,0-.176.527q2.575,0,3.045.878a7.616,7.616,0,0,1,.468,3.221,8.146,8.146,0,0,1-.176,1.581,7.312,7.312,0,0,1-.527,1.64,4.166,4.166,0,0,1-1,1.347,2.262,2.262,0,0,1-1.581.586,3.938,3.938,0,0,0-.058-0.82,1.855,1.855,0,0,1-.059-0.469,3.681,3.681,0,0,1,.468-1.288H60.072l-0.234-.117a1.125,1.125,0,0,0-1.113.586,1.023,1.023,0,0,1-1,.586,5.535,5.535,0,0,1,.117-1.288,5.62,5.62,0,0,0,.117-1.288,0.331,0.331,0,0,0-.351-0.293q-0.351-.058-0.351-0.176a7.23,7.23,0,0,0-.878,1.464,5.417,5.417,0,0,0-.41,1l0.117-.117a1.315,1.315,0,0,1,.234.41c0.077,0.2.156,0.372,0.234,0.527a3.823,3.823,0,0,1-.937.234,7.084,7.084,0,0,1-.937.117,0.643,0.643,0,0,1-.644-0.469,6.364,6.364,0,0,1-.293-1.113,8.692,8.692,0,0,0-.293-1.171,1.263,1.263,0,0,0-.644-0.761,4.1,4.1,0,0,1-.293,1.464,2.41,2.41,0,0,1-1.113,1.23q-0.939.821-1.581,1.406t-1.581,1.406a7.648,7.648,0,0,1,.176-0.879,10.487,10.487,0,0,0,.234-1.64,4.664,4.664,0,0,0-.117-1.523,0.819,0.819,0,0,0-.879-0.644,2.456,2.456,0,0,0-1,.7q-0.763.7-1.7,1.523-1.054,1.054-2.343,2.225-0.236,0-.351-0.527a5.366,5.366,0,0,1-.117-1.171,10.85,10.85,0,0,0-.058-1.171c-0.04-.351-0.137-0.527-0.293-0.527a1.9,1.9,0,0,0-.527.176,1.785,1.785,0,0,1-.644.176,3.075,3.075,0,0,1-1-.937,1.553,1.553,0,0,0-.761-0.7,0.678,0.678,0,0,0-.82.7,0.5,0.5,0,0,0,.059.234,0.534,0.534,0,0,1,.059.234,1.009,1.009,0,0,1-.234.644,1.566,1.566,0,0,1-1.171.293,0.61,0.61,0,0,1,.527.468,4.339,4.339,0,0,1,.059.7,1.735,1.735,0,0,1-.176.878,0.977,0.977,0,0,1-.878.293,4.114,4.114,0,0,0-.234-0.761,3.156,3.156,0,0,1-.234-0.878,1.415,1.415,0,0,1,.293-0.937,1.247,1.247,0,0,0,.293-0.82q0-1.169-.586-1.288-0.7.7-1.171,1.113a2.511,2.511,0,0,1-1.64.41,2.023,2.023,0,0,0,.41-0.644,4.655,4.655,0,0,1,.41-0.761l0.234-.937H31.845a2.381,2.381,0,0,1-.176.82,0.726,0.726,0,0,1-.761.469,0.752,0.752,0,0,1-.7-0.527,2.63,2.63,0,0,0-.468-0.761q-1.29.469-1.288,1.054a1.861,1.861,0,0,0,.058.469,3.168,3.168,0,0,1,.059.7,3.4,3.4,0,0,1-1.523-.293,1.49,1.49,0,0,1-.586-1.464l-4.217.351a0.956,0.956,0,0,0-.586.527,1.711,1.711,0,0,0-.351.761,3.364,3.364,0,0,0,.293,1.288,4.265,4.265,0,0,1,.293,1.64,1.947,1.947,0,0,1-.059.469,1.549,1.549,0,0,0-.059.351l-0.937.468a3.005,3.005,0,0,1,.7.351,1.971,1.971,0,0,1,.7.586v1.757l0.937-.468q0.233,1.29.41,1.991a7.393,7.393,0,0,1,.176,1.757,2.98,2.98,0,0,1-.41,1.933,1.353,1.353,0,0,1-1,.41,1.855,1.855,0,0,1-.468-0.059,1.969,1.969,0,0,0-.469-0.058,0.517,0.517,0,0,0-.586.586,1.745,1.745,0,0,0,1.054,1.757,5.407,5.407,0,0,0,2.225.468l-1.874.82q4.683,0,6.442-.059a18.225,18.225,0,0,0,2.928-.293l0.234-2.46a5.07,5.07,0,0,0,1.406,1.347,3.546,3.546,0,0,0,1.757.879q0.467,0,2.167-.176t3.69-.41q1.99-.233,3.689-0.41a20.566,20.566,0,0,0,2.167-.293,1.39,1.39,0,0,1,.761-0.117,5.561,5.561,0,0,1,1.347.176,2.607,2.607,0,0,1,1.23.7,2.147,2.147,0,0,1,.527,1.581,10.226,10.226,0,0,1-.117,1.64,10.026,10.026,0,0,0-.117,1.64q0,1.524.059,2.635a8.25,8.25,0,0,0,.351,2.05,4.928,4.928,0,0,0,1,1.757,11.592,11.592,0,0,0,1.991,1.757,1.143,1.143,0,0,1-.234.82,4.715,4.715,0,0,0-.234,2.108,1.132,1.132,0,0,1-.176.761,2.255,2.255,0,0,1-.351.293,1.979,1.979,0,0,0-.293.234,0.926,0.926,0,0,0-.117.586,0.762,0.762,0,0,0,.761.878q0.761,0.06.761,0.527a0.571,0.571,0,0,1-.527.586c-0.351.079-.743,0.176-1.171,0.293a2.621,2.621,0,0,0-1.171.7,2.523,2.523,0,0,0-.527,1.816,17.174,17.174,0,0,0,.351,3.221,15.949,15.949,0,0,0,.586,2.4,1.617,1.617,0,0,1,1.054-.586c0.077,0,.117.02,0.117,0.059s0.038,0.059.117,0.059H52.81V77.695a0.386,0.386,0,0,1,.351.293,1.2,1.2,0,0,0,.234.41,10.939,10.939,0,0,0-2.05,4.275,24.31,24.31,0,0,0-.41,4.744,16.381,16.381,0,0,0,.293,2.987,3.866,3.866,0,0,0,1.581,2.518,1.1,1.1,0,0,1-1,.527c-0.509.04-.84,0.059-1,0.059a0.346,0.346,0,0,1,.117.234,6,6,0,0,1,1.405,1.406,2.819,2.819,0,0,1-.937,1.288q-0.236,2.46-.351,3.983t-0.117,3.748q0,0.939.058,2.108a19.308,19.308,0,0,0,.234,2.225,7.158,7.158,0,0,0,.527,1.816,1.127,1.127,0,0,0,1.054.761,3.342,3.342,0,0,0,1.347-.234,2.991,2.991,0,0,1,1.23-.234h0A1.708,1.708,0,0,1,56.558,111.018Zm-4.1-21.61a0.1,0.1,0,0,1-.117.117,0.206,0.206,0,0,1-.234-0.234c0-.077.077-0.117,0.234-0.117,0.077,0,.117.079,0.117,0.234h0Zm1.23-2.577a3.4,3.4,0,0,1-1.933.586,1.944,1.944,0,0,1,.878-1.815,3.686,3.686,0,0,1,1.933-.527A1.969,1.969,0,0,1,53.689,86.831Zm8.023-2.225h0.468v0.351H61.712V84.606ZM53.162,83.2c0,0.313-.117.468-0.351,0.468s-0.351-.155-0.351-0.468,0.117-.469.351-0.469,0.351,0.157.351,0.469h0ZM62.3,80.155c0,0.157-.04.234-0.117,0.234a0.234,0.234,0,1,1,0-.468c0.077,0,.117.079,0.117,0.234h0Zm1.64-.586a0.351,0.351,0,0,1-.7,0c0-.311.117-0.469,0.351-0.469s0.351,0.157.351,0.469h0Zm-8.785-1.288H56.09a1.442,1.442,0,0,1-.234.644,0.76,0.76,0,0,1-.7.41V78.281ZM55.036,64.46c0,0.313-.117.469-0.351,0.469s-0.351-.156-0.351-0.469,0.117-.468.351-0.468,0.351,0.157.351,0.468h0Zm-0.7-3.045c0,0.234-.04.351-0.117,0.351-0.157,0-.234-0.117-0.234-0.351a0.207,0.207,0,0,1,.234-0.234c0.077,0,.117.079,0.117,0.234h0Zm9.722-11.6a1.061,1.061,0,0,1,.586.937H64.055V49.819Zm-11.947.7a0.206,0.206,0,0,1-.234-0.234c0-.077.077-0.117,0.234-0.117s0.234,0.04.234,0.117a0.207,0.207,0,0,1-.234.234h0ZM27.452,49.233a2.528,2.528,0,0,1-2.4,0q0.233-.351.761-1.347a1.472,1.472,0,0,1,1.113-1Q28.213,48.648,27.452,49.233Zm5.095-2.108h0.468v0.469H32.547V47.125Zm31.976,0,0.469,0.469H64.523V47.125Zm-30.57-2.343h0.468l-0.468.468V44.782Zm-9.6-2.694L25.52,44.2l-0.468.586ZM39.575,41.5a0.563,0.563,0,0,1,.527.351,1.423,1.423,0,0,1,.176.468,0.338,0.338,0,0,0-.117.234,2.4,2.4,0,0,0-.41-0.293,0.4,0.4,0,0,1-.176-0.527V41.5ZM62.063,42.44c0,0.313-.117.468-0.351,0.468s-0.351-.156-0.351-0.468,0.117-.468.351-0.468,0.351,0.157.351,0.468h0Zm4.275-2.05a0.911,0.911,0,0,1,.176.644,1.5,1.5,0,0,1-1.757,1.64,8.659,8.659,0,0,1,.176-1.523q0.176-.936.527-0.937A1.39,1.39,0,0,1,66.339,40.39Zm2.284,1.64q0,0.527-.351.527c-0.234,0-.351-0.155-0.351-0.468,0-.39.117-0.586,0.351-0.586S68.623,41.679,68.623,42.03Zm-41.229-.7a0.972,0.972,0,0,1,.7.527,4.373,4.373,0,0,1-.351,1.113,1.293,1.293,0,0,1-.586.878,1.662,1.662,0,0,1-.644-1.054,5.649,5.649,0,0,1-.41-1.288c0-.311.117-0.468,0.351-0.468A3.258,3.258,0,0,1,27.394,41.327Zm52.356-.059c0,0.157-.04.234-0.117,0.234a0.234,0.234,0,1,1,0-.468c0.077,0,.117.079,0.117,0.234h0Zm-46.734-.586,0.468-.468a0.711,0.711,0,0,1,.527.7c0.038,0.392.059,0.664,0.059,0.82a2.569,2.569,0,0,0-.059-0.41,0.449,0.449,0,0,0-.527-0.293ZM38.4,40.741a1.4,1.4,0,0,1,.117.41,2.06,2.06,0,0,1-.293,1.347,3.208,3.208,0,0,1-1.815.293,4.222,4.222,0,0,1,.7-1.288,2.46,2.46,0,0,1,.937-1.054A0.386,0.386,0,0,1,38.4,40.741ZM69.56,40.8a0.882,0.882,0,0,1-.351-0.117,1.061,1.061,0,0,0-.469-0.117c-0.313,0-.468.274-0.468,0.82v0.351a1.911,1.911,0,0,1,.117-0.586,1.628,1.628,0,0,1,.41-0.644,0.949,0.949,0,0,1,1-.059c0,0.234-.079.351-0.234,0.351h0Zm-24.831.351c0,0.313-.117.468-0.351,0.468s-0.351-.156-0.351-0.468,0.117-.469.351-0.469,0.351,0.157.351,0.469h0Zm48.784-1.23a2.769,2.769,0,0,1-.293,1.23H92.282a7.218,7.218,0,0,1,.234-1.757,1.106,1.106,0,0,1,1.171-.937C93.688,38.615,93.629,39.1,93.512,39.922Zm-62.487.41a7.469,7.469,0,0,0,.176.879c0.117,0.509.1,0.761-.059,0.761a1.024,1.024,0,0,1-.527-0.761,4.875,4.875,0,0,1-.293-0.879c0-.311.117-0.468,0.351-0.468s0.351,0.157.351,0.468h0Zm48.842-4.685v2.343h1.757a2.328,2.328,0,0,1-.586,1.347,2.125,2.125,0,0,1-1.405.878,14.593,14.593,0,0,1-.351-2.284q-0.118-1.345-.117-2.284h0.7Zm-49.31,4.1c0,0.313-.117.468-0.351,0.468s-0.351-.156-0.351-0.468,0.117-.468.351-0.468,0.351,0.157.351,0.468h0Zm39.706-.468H69.091a4.146,4.146,0,0,1,.059-0.7,0.847,0.847,0,0,1,.527-0.586,1.8,1.8,0,0,1,.586,1.288h0Zm24.245,0.117c0,0.313-.117.468-0.351,0.468S93.8,39.707,93.8,39.395c0-.39.117-0.586,0.351-0.586s0.351,0.2.351,0.586h0Zm-39.823-.937h0.468v0.351H54.684V38.458Zm-15.227,0a0.351,0.351,0,0,1-.7,0c0-.311.117-0.469,0.351-0.469s0.351,0.157.351,0.469h0Zm29.165-2.518c0.234-.507.428-0.917,0.586-1.23a2.2,2.2,0,0,1,.586,1.405,0.931,0.931,0,0,1-.234.761c-0.157.117-.43,0.333-0.82,0.644a0.464,0.464,0,0,1-.293-0.234,0.706,0.706,0,0,1-.176-0.351A3.311,3.311,0,0,1,68.623,35.939Zm-41.7.176,0.468,4.334L23.763,40.1Zm61.14,0.82H87.129v-0.7a0.686,0.686,0,0,1,.468-0.586Zm3.045-1.347a0.521,0.521,0,0,1,.234-0.059,3.752,3.752,0,0,1,.586.059,0.449,0.449,0,0,1,.351.527,1.141,1.141,0,0,1-.234.586,0.631,0.631,0,0,1-.468.351,0.664,0.664,0,0,1-.469-0.469,2.059,2.059,0,0,1-.234-0.937A0.51,0.51,0,0,0,91.111,35.588Zm-61.374.059,0.234-.117c0.545,0.157,1,.275,1.347.351a5.39,5.39,0,0,1,.937.293,0.613,0.613,0,0,1,.41.293,2.711,2.711,0,0,1-.586.351q-0.469.236-1,.527a7.466,7.466,0,0,1-1,.468,2.535,2.535,0,0,1-.586.176h0Zm15.578,0.937,0.468-.468H45.314v0.468Zm36.544,0a0.351,0.351,0,0,1-.7,0c0-.311.117-0.468,0.351-0.468s0.351,0.157.351,0.468h0ZM24.231,34.709a0.827,0.827,0,1,1-1.64,0h1.64Zm42.107-.644a1.057,1.057,0,0,1,1,.644,0.911,0.911,0,0,1-.937.586,1.048,1.048,0,0,1-1.054-1.288C65.5,34.007,65.83,34.027,66.339,34.065Zm15.871,0.41a0.206,0.206,0,0,1-.234-0.234c0-.077.077-0.117,0.234-0.117s0.234,0.04.234,0.117a0.207,0.207,0,0,1-.234.234h0Zm-1.874-1.757a0.234,0.234,0,1,1,.234-0.234,0.206,0.206,0,0,1-.234.234h0Zm5.271-3.4a0.351,0.351,0,0,1-.7,0c0-.311.117-0.468,0.351-0.468s0.351,0.157.351,0.468h0ZM62.532,39.1a1.394,1.394,0,0,1,.117.41,2.061,2.061,0,0,1-.293,1.347,3.209,3.209,0,0,1-1.815.293,4.221,4.221,0,0,1,.7-1.288,2.46,2.46,0,0,1,.937-1.054A0.386,0.386,0,0,1,62.532,39.1Zm77.9,46.207a1.266,1.266,0,0,0,.058.41,1.3,1.3,0,0,1,.059.41Zm0.117,0.82,0.586,3.748,0.351,1.991q0.234,0.939.41,1.581a2.009,2.009,0,0,0,.41.879c0.077,0.079.252-.059,0.527-0.41s0.565-.761.878-1.23,0.6-.878.879-1.23,0.41-.487.41-0.41a4.22,4.22,0,0,1,.234,1.347q0.115,1.23.176,2.753t0.175,2.87c0.077,0.9.118,1.387,0.118,1.464s0.076,0.117.234,0.117h0.234a0.753,0.753,0,0,0,.7-0.469,6.6,6.6,0,0,0,.41-1.054q0.176-.585.293-1.171a1.593,1.593,0,0,1,.351-0.82,2.938,2.938,0,0,1,.82,2.167q0,1.348-.059,2.811a14.814,14.814,0,0,0,.117,2.694,2.307,2.307,0,0,0,1.347,1.815,22.059,22.059,0,0,0,3.924,1.64q1.934,0.585,3.924,1.406h0.7a2.672,2.672,0,0,0,1.874-.645,6.835,6.835,0,0,0,1.23-1.522q0.526-.879,1.054-1.874a5.068,5.068,0,0,1,1.464-1.7V95.5a2.414,2.414,0,0,1-1.464-.644,15.5,15.5,0,0,1-1.054-1.171,6.393,6.393,0,0,0-1.172-1.113,2.831,2.831,0,0,0-1.7-.469H158.7a5.549,5.549,0,0,1-.117-0.82q-0.118-.936-0.235-0.82l-2.694,3.045a1.241,1.241,0,0,1-.41-0.644c-0.195-.428-0.45-0.955-0.761-1.581l-1.171-2.343a1.117,1.117,0,0,1,1.113-.234,16.831,16.831,0,0,1,1.815.351q0.936,0.236,1.7.351c0.507,0.079.762-.038,0.762-0.351a1.9,1.9,0,0,0-1-1.171q-1-.7-2.167-1.405t-2.284-1.406a2.66,2.66,0,0,1-1.23-1.171q-0.117-.233.352-0.351t1.113-.234q0.642-.115,1.171-0.234a0.525,0.525,0,0,0,.527-0.351,1.079,1.079,0,0,0-.586-0.586,10.121,10.121,0,0,0-.937-0.41,3.956,3.956,0,0,1-.82-0.41,0.373,0.373,0,0,1-.117-0.586l1.757-2.694-2.577-1.64q-0.351-.115-0.058-0.7a13.281,13.281,0,0,1,.7-1.23c0.272-.428.527-0.838,0.761-1.23a1.194,1.194,0,0,0,.234-0.937,2.854,2.854,0,0,1-1.757-.7,2.061,2.061,0,0,1-.41-1.054,9.251,9.251,0,0,0-.234-1.288,2.86,2.86,0,0,0-1-1.406,1.579,1.579,0,0,0-1.347-.41,2.663,2.663,0,0,0-.819.41c-0.2.157-.334,0.176-0.41,0.059a5.146,5.146,0,0,1-.118-1.581,2.969,2.969,0,0,1,1.582.293,3.584,3.584,0,0,0,1.815.293,8.19,8.19,0,0,0-.7-3.1,14.205,14.205,0,0,0-1.815-3.163,10.6,10.6,0,0,0-2.635-2.46,5.714,5.714,0,0,0-3.163-1,1.742,1.742,0,0,0-1.288.468,7.865,7.865,0,0,0-.879,1.054,6.719,6.719,0,0,0-.7,1.288,3.6,3.6,0,0,1-.762,1.171l-3.982,3.865q0-.233-0.176-1.347a1.5,1.5,0,0,0-.878-1.347,2.061,2.061,0,0,0-1.054,1.523,3.805,3.805,0,0,1-.7,1.757q-1.173,1.757-1.933,2.987a16.417,16.417,0,0,1-1.64,2.225,11.515,11.515,0,0,1-2.049,1.816,17.793,17.793,0,0,1-3.046,1.64,3.826,3.826,0,0,0-1.4,1.523q-0.821,1.29-1.757,2.811t-1.757,2.928a7.129,7.129,0,0,1-1.405,1.874l-0.235-7.262a1.991,1.991,0,0,1,1,.234q0.409,0.236.527-.586a15.377,15.377,0,0,0,.7-2.167,10.65,10.65,0,0,0,.468-2.518V70.9c0-.077.019-0.117,0.059-0.117s0.058-.038.058-0.117a2.419,2.419,0,0,0-.468-0.7q-0.47-.585-1-1.288c-0.351-.469-0.684-0.917-1-1.347a2.746,2.746,0,0,1-.469-0.761,2.219,2.219,0,0,1,1-2.167,3.221,3.221,0,0,0,1.464-1.581,2.041,2.041,0,0,0-.41-0.644c-0.275-.351-0.547-0.721-0.82-1.113s-0.547-.761-0.82-1.113a2,2,0,0,1-.41-0.644q1.288-.818,2.05-1.347t1.405-.937a1.619,1.619,0,0,0,.645-0.527V56.144a3.57,3.57,0,0,0-.645-1.933,12.013,12.013,0,0,0-1.581-1.933,15.281,15.281,0,0,0-1.581-1.581,10.883,10.883,0,0,0-1.347-1,1.456,1.456,0,0,1,1.113-.937,1.452,1.452,0,0,0,1.112-.937,0.692,0.692,0,0,0-.292-0.644,4.28,4.28,0,0,0-.586-0.293,2.207,2.207,0,0,1-.527-0.293,0.738,0.738,0,0,1-.117-0.761,10.338,10.338,0,0,1,.527-1.815q0.41-1.112.878-2.284t0.879-2.225a10.913,10.913,0,0,0,.527-1.64c0-.311-0.255-0.448-0.761-0.41s-1.075.1-1.7,0.176-1.211.157-1.757,0.234-0.82.04-.82-0.117a2.386,2.386,0,0,1,.469-0.7c0.311-.39.644-0.82,1-1.288s0.839-1.131,1.465-1.991a3.652,3.652,0,0,1,.234-1.054q0.233-.7.527-1.581c0.194-.586.351-1.131,0.468-1.64a2.249,2.249,0,0,0,.059-1.113q-0.119-.936-1.054-0.586a5.05,5.05,0,0,1-1.171.351V26.218q0-.878-1.406-1.113a11.827,11.827,0,0,0-4.685,0l-1.054-1.171a0.6,0.6,0,0,0-.586.586c0,0.313-.02.664-0.058,1.054a3.288,3.288,0,0,1-.41,1.23,2.925,2.925,0,0,1-1.64,1.113V26.042q-1.055.351-2.05,0.644a1.437,1.437,0,0,0-1,1.581,40.281,40.281,0,0,0,.937,8.55q0.936,4.335,1.874,8.55v29.4a12.184,12.184,0,0,0,.117,1.288q0.116,0.939.234,1.991T106.7,80.1c0.077,0.664.117,1.113,0.117,1.347a2.321,2.321,0,0,1,.645.761,2.134,2.134,0,0,1,.41,1,14.127,14.127,0,0,1-.879,4.451,14.938,14.938,0,0,0-.878,4.8,1.205,1.205,0,0,0,.644,1.23,0.943,0.943,0,0,1,.644.878,2.671,2.671,0,0,1-.644,1.874,2.349,2.349,0,0,0-.644,1.64,17.319,17.319,0,0,0,.351,3.4,17.89,17.89,0,0,1,.351,3.514,5.5,5.5,0,0,1-.351,2.049,5.861,5.861,0,0,0-.351,2.167,0.888,0.888,0,0,1,.351-0.117,0.481,0.481,0,0,0,.351-0.117,3.149,3.149,0,0,0,1.113-1.054,6.386,6.386,0,0,1,1.113-1.171l0.117-.118a0.249,0.249,0,0,1,.176.059,0.232,0.232,0,0,0,.175.059h0.117a3.547,3.547,0,0,1,.293.351,0.72,0.72,0,0,1,.176.351l0.7-1.874V105.22a4.1,4.1,0,0,0-.527-0.7,1.123,1.123,0,0,0-.645-0.468,1.367,1.367,0,0,0,.235-0.352,0.332,0.332,0,0,1,.234-0.234c0.156-.156.311-0.117,0.468,0.117a6.025,6.025,0,0,1,.469.879,10.661,10.661,0,0,1,.468,1.347h0.586q0.234,0.117.937,0.409a3.187,3.187,0,0,0,.937.293h0.469a5.931,5.931,0,0,0,1.932-1.288,3.379,3.379,0,0,1,2.4-.937,0.1,0.1,0,0,0-.117-0.117,0.676,0.676,0,0,1-.468-0.117,1.434,1.434,0,0,1-.586-0.352,2.755,2.755,0,0,1-.527,1.874,5.9,5.9,0,0,0-1,2.109,1.23,1.23,0,0,0,1.289.585,0.66,0.66,0,0,0,.82-0.644,1.391,1.391,0,0,1,.585-1.113,8.422,8.422,0,0,0,2.929-2.576,13.063,13.063,0,0,0,1.815-3.69,25.244,25.244,0,0,0,.937-4.334,35.653,35.653,0,0,0,.293-4.509,1.03,1.03,0,0,1,.293-0.761l0.527-.527a1.039,1.039,0,0,0,.293-0.527,0.991,0.991,0,0,0-.41-0.761,0.512,0.512,0,0,0,.234-0.059,0.521,0.521,0,0,1,.234-0.058c0.545,0,.82.2,0.82,0.586a0.472,0.472,0,0,0,.468.586,2.092,2.092,0,0,0,1.992-1.054,5.579,5.579,0,0,0,.7-1.991h-1.639a2.788,2.788,0,0,1,.175-0.761,1.982,1.982,0,0,1,.293-0.644,4.428,4.428,0,0,1-.351-0.937c-0.079-.234-0.158-0.468-0.234-0.7s-0.079-.351,0-0.351a0.657,0.657,0,0,0,.351-0.234,0.881,0.881,0,0,0,.351-0.293,2.735,2.735,0,0,1,.352-0.41,12.75,12.75,0,0,0,.937-1.054l0.234,4.451q0.232-.115.937-0.527a13.871,13.871,0,0,0,1.464-1q0.761-.585,1.406-1.113a3.293,3.293,0,0,0,.761-0.761,1.91,1.91,0,0,0,.468-1.406q0-.936.059-1.874a3.76,3.76,0,0,1,.41-1.581,1.72,1.72,0,0,1,1.64-.644q0.936,0,1.757,2.694l0.468,1.874,2.343,1.991h0Zm-33.264,21.9a0.474,0.474,0,0,1-.469.586,0.586,0.586,0,0,1,0-1.172A0.473,0.473,0,0,1,107.285,108.031Zm45.562-4.1q0,0.468-.351.468a0.469,0.469,0,1,1,0-.937C152.73,103.463,152.847,103.62,152.847,103.932Zm2.928-2.167a0.493,0.493,0,0,1-.585.527c-0.234,0-.352-0.176-0.352-0.527s0.118-.527.352-0.527A0.493,0.493,0,0,1,155.775,101.765Zm-37.129-4.92A3.481,3.481,0,0,0,119,96.553a5.159,5.159,0,0,0,.761-0.176,4.083,4.083,0,0,1,1-.176,0.847,0.847,0,0,1-.528-0.586,4.166,4.166,0,0,1-.058-0.7,2.535,2.535,0,0,1,1-1.523,4,4,0,0,0,1.23-1.874l0.235-.117h0.117l0.117,0.117a2.569,2.569,0,0,1,.468.878,3.254,3.254,0,0,1,.235.878l-0.7.468c-0.079.157-.158,0.333-0.234,0.527a1.567,1.567,0,0,1-.352.527l-0.468.7a2,2,0,0,0,.234.586,1.761,1.761,0,0,0,.351.468v0.7l-1.639,2.225h-0.469a1.868,1.868,0,0,1-1.171-.879,2.581,2.581,0,0,1-.7-1.347h0A0.5,0.5,0,0,1,118.646,96.845Zm-10.307,2.635a0.472,0.472,0,0,1-.468.585c-0.235,0-.352-0.194-0.352-0.585s0.117-.586.352-0.586A0.474,0.474,0,0,1,108.339,99.481ZM160.7,98.192a1.107,1.107,0,0,1-1.171.937,7.826,7.826,0,0,1,.175-1.64,1.075,1.075,0,0,1,1.23-.82A6.631,6.631,0,0,1,160.7,98.192Zm1.874-.351h-0.7a4.611,4.611,0,0,1,.117-1,1.065,1.065,0,0,1,.586-0.761v1.757ZM123.683,86.48v0.468H123.1Zm-5.622-13a0.239,0.239,0,0,0-.176.059,0.237,0.237,0,0,1-.176.059,0.725,0.725,0,0,1-.761-0.527,2.9,2.9,0,0,1-.176-0.878,1.3,1.3,0,0,1,1.289,1.288h0Zm16.866-2.694h0.586l-0.586.351V70.785ZM118.178,93.8v0.527q0,1.524-1.113,1.7a14.635,14.635,0,0,1-2.284.176,1.432,1.432,0,0,1,.351-1.054,2.906,2.906,0,0,1,.879-0.586c0.351-.156.721-0.331,1.113-0.527a2.25,2.25,0,0,0,.937-0.879A1.5,1.5,0,0,1,118.178,93.8Zm27.407-29.809c0,0.313-.117.468-0.351,0.468a0.48,0.48,0,1,1,0-.937C145.468,63.523,145.585,63.68,145.585,63.991Zm-1.405-4.685h0.351a0.871,0.871,0,0,1-.468.7h-0.7a3.363,3.363,0,0,1,.351-0.293,1.164,1.164,0,0,0,.352-0.41h0.117ZM110.1,27.916h0.7l-0.7.468V27.916Zm4.217-.351a0.374,0.374,0,0,1-.235.351c-0.157,0-.234-0.135-0.234-0.41s0.077-.37.234-0.293A0.377,0.377,0,0,1,114.313,27.565Zm-1.64-.586a0.371,0.371,0,0,1-.352-0.234c0-.156.117-0.234,0.352-0.234s0.311,0.079.234,0.234A0.207,0.207,0,0,1,112.673,26.979ZM140.2,64.518v0.527q0,1.524-1.113,1.7a14.647,14.647,0,0,1-2.284.176,1.433,1.433,0,0,1,.351-1.054,2.907,2.907,0,0,1,.879-0.586q0.526-.233,1.112-0.527a2.238,2.238,0,0,0,.937-0.878A1.481,1.481,0,0,1,140.2,64.518Zm62.791,42.517a2.48,2.48,0,0,1,.761,1.113q0.175,0.585.352,1.113a0.812,0.812,0,0,0,.878.527,2.844,2.844,0,0,0,.937-1.289,6.381,6.381,0,0,0,.7-1.288l1.933-1.933a8.331,8.331,0,0,1,1.347-1.229h0.351a1.879,1.879,0,0,1,.586,1.229q0.351,1.23.585,1.933v0.351a5.392,5.392,0,0,0-.293.879,4.085,4.085,0,0,0-.175.878,0.414,0.414,0,0,0,.468.469,3.783,3.783,0,0,0,.586-1.64,10.664,10.664,0,0,0,.058-1.933q-0.06-.993-0.175-1.815a9.492,9.492,0,0,1-.117-1.288,1.6,1.6,0,0,1,1.581.82,6.694,6.694,0,0,1,.585,1.756q0.177,0.939.293,1.757a0.756,0.756,0,0,0,.7.82h0.117a4.478,4.478,0,0,0,.937-1c0.234-.352.469-0.683,0.7-1a4.084,4.084,0,0,1,.82-0.82,2.573,2.573,0,0,1,1.522-.351h0.118a7.387,7.387,0,0,0,.527,1.522,1.121,1.121,0,0,0,1.112.586,1.6,1.6,0,0,0,1.172-.7,10.938,10.938,0,0,0,1.112-1.639,18.188,18.188,0,0,0,.879-1.757,3.54,3.54,0,0,0,.351-1.172h0.82V105.1h0.82a2.043,2.043,0,0,0,.586-0.234,1.047,1.047,0,0,1,.468-0.118v-3.279l1.054,2.108a1.494,1.494,0,0,1,.644-1.054,10.423,10.423,0,0,1,1.113-.644,4.01,4.01,0,0,0,1.054-.762,1.743,1.743,0,0,0,.469-1.288,1.611,1.611,0,0,0-.586-1.23,1.725,1.725,0,0,1-.586-1.347,2.217,2.217,0,0,1,.176-0.879q0.176-.409.879-0.176a2.272,2.272,0,0,1,1.054,1.171,3.673,3.673,0,0,1,.468,1.523,3.815,3.815,0,0,0,.235-0.878,1.829,1.829,0,0,1,.234-0.761,1.449,1.449,0,0,1,.293-0.527,1.444,1.444,0,0,0,.292-0.527c0-.311-0.058-0.937-0.175-1.874s-0.176-1.523-.176-1.757a14,14,0,0,1,1.523.058,6.837,6.837,0,0,0,.878.059,4.336,4.336,0,0,0,.937-0.117c0.352-.077.917-0.234,1.7-0.469a0.343,0.343,0,0,0,.117-0.234,0.559,0.559,0,0,0-.293-0.586,3.22,3.22,0,0,0-.7-0.176,2.988,2.988,0,0,1-.7-0.176,0.553,0.553,0,0,1-.293-0.586,2.637,2.637,0,0,1,.7-2.108,3.524,3.524,0,0,1,1.581-.761q0.879-.176,1.582-0.293a0.751,0.751,0,0,0,.7-0.82,0.735,0.735,0,0,0-.644-0.82,1.406,1.406,0,0,1-1-.7q0.818-1.054,1.288-1.757a12.245,12.245,0,0,0,.761-1.288,4.557,4.557,0,0,0,.41-1.347,14.267,14.267,0,0,0,.117-2.05,11.662,11.662,0,0,0-.527-3.69,33.1,33.1,0,0,1-1-3.924h-1.523a6.028,6.028,0,0,1-.117,1.171,0.652,0.652,0,0,1-.7.586H238.01a0.1,0.1,0,0,1-.117-0.117c0-.077-0.04-0.331-0.117-0.761a6.731,6.731,0,0,0-.41-1.347,12.7,12.7,0,0,0-.586-1.23,0.815,0.815,0,0,0-.644-0.527l-0.234.117c-0.079.157-.176,0.333-0.293,0.527s-0.216.371-.293,0.527v0.351a4.11,4.11,0,0,0,.761,1.815,6.813,6.813,0,0,0,1.347,1.7l-3.279,3.045h-0.352V68.208a3,3,0,0,0-1.112-2.284,14.566,14.566,0,0,0-2.577-1.815,19.765,19.765,0,0,0-2.928-1.347q-1.467-.527-2.284-0.878a1.806,1.806,0,0,1-1.289-1.347,3,3,0,0,0-1.288-1.7l-1.523,1.523a5.125,5.125,0,0,0-.82-1.464,1.836,1.836,0,0,0-1.522-.761l-0.352.117a3.477,3.477,0,0,0-.41,1.054,0.771,0.771,0,0,1-.761.7,1.484,1.484,0,0,1-1.288-1.171,7.534,7.534,0,0,0-.586-1.288h-0.586a2.747,2.747,0,0,0-.527.059,3.2,3.2,0,0,1-.644.059,3.41,3.41,0,0,1-.82.117V57.9a1.249,1.249,0,0,1,1.464.937,9.506,9.506,0,0,1,.176,1.757,18.624,18.624,0,0,0-1.991.059,9.082,9.082,0,0,1-1.288.059,4.783,4.783,0,0,1,.058-0.878,2.97,2.97,0,0,0,.059-0.586,1.136,1.136,0,0,0-.176-0.586q-0.175-.291-0.527-0.879a3.812,3.812,0,0,0-.879,1.347,2.406,2.406,0,0,1-1.112,1.23,1.433,1.433,0,0,1-.879-0.586,1.811,1.811,0,0,1-.175-0.82,3.224,3.224,0,0,1,.292-1.347,3.514,3.514,0,0,0,.293-1.464,0.842,0.842,0,0,0-.468-0.82,14.745,14.745,0,0,1-1.347,2.225,3.424,3.424,0,0,1-2.284.468c0,0.157.018,0.723,0.058,1.7s0.117,2.011.235,3.1a15.538,15.538,0,0,0,.644,3.1,2.915,2.915,0,0,0,1.171,1.815,2.711,2.711,0,0,0,.586-1,3.207,3.207,0,0,0,.234-1,0.813,0.813,0,0,1,.7.644,1.683,1.683,0,0,1,0,.878l0.468-.469c0.156-.234.352-0.545,0.586-0.937a2.551,2.551,0,0,0,.351-0.7,1.817,1.817,0,0,0-.468-0.82,2.338,2.338,0,0,1-.469-0.7,0.829,0.829,0,0,1,.117-0.7,2.051,2.051,0,0,0,.235-0.586,0.1,0.1,0,0,1,.117-0.117,0.338,0.338,0,0,0,.234-0.117l0.234-.234a6.606,6.606,0,0,0,.7.586,0.947,0.947,0,0,1,.469.586v4.217q0,0.821,1.346,1.347a18.494,18.494,0,0,0,3.1.878q1.758,0.351,3.338.527t2.167,0.293a4.15,4.15,0,0,1,1.64,1q0.817,0.763,1.581,1.523a18.89,18.89,0,0,0,1.406,1.288,0.871,0.871,0,0,0,1,.293,25.518,25.518,0,0,0,1.64,2.343,3.031,3.031,0,0,1,.586,1.991,4.123,4.123,0,0,1-.586,1.991,3.784,3.784,0,0,0-.585,1.523,1.476,1.476,0,0,0,.351,1c0.234,0.275.468,0.527,0.7,0.761s0.468,0.489.7,0.761a1.652,1.652,0,0,1,.352,1.113,9.656,9.656,0,0,1-.176,1.991q-0.175.821-.41,2.108l-0.234.117a0.828,0.828,0,0,1-.82-0.586q-0.236-.585-0.527-1.288a4.032,4.032,0,0,0-.878-1.288,2.573,2.573,0,0,0-1.874-.586h-0.235a3.6,3.6,0,0,1,.352,1.7,9.326,9.326,0,0,0-.117,1.933,2.979,2.979,0,0,1-1.055-.176,1.052,1.052,0,0,1-.468-1.113,2.191,2.191,0,0,0-1.7.7,4.221,4.221,0,0,0-.938,1.7,11.873,11.873,0,0,0-.409,1.991,14.123,14.123,0,0,0-.118,1.581,2.378,2.378,0,0,0-1.054.117q-0.117.118-.937-1.171-0.587,1.054-1.054,1.874a5.4,5.4,0,0,1-1.054,1.347,3.507,3.507,0,0,1-1.523.761,10.415,10.415,0,0,1-2.459.234q-3.048,0-6.559-.117a27.118,27.118,0,0,1-6.442-.937q-1.994-.585-3.924-1.288t-3.807-1.288a2.012,2.012,0,0,1-1.405-1.757,20.421,20.421,0,0,0-.7-2.46,3.147,3.147,0,0,0-1.054-1.171,7.046,7.046,0,0,1-1.054-.761,2.864,2.864,0,0,1-.762-1.23,8.766,8.766,0,0,1-.293-2.694V83.786q1.054-1.054,1.582-1.64a3.927,3.927,0,0,0,.527-2.46,4.265,4.265,0,0,0-.293-1.64,3.615,3.615,0,0,1-.293-1.406,0.9,0.9,0,0,1,.351-0.879,3.9,3.9,0,0,1,.879-0.293c0.351-.077.721-0.156,1.113-0.234a1.37,1.37,0,0,0,.937-0.82q0.232-.467.82-1.464a10.231,10.231,0,0,1,.7-1.113l1.406-.351a3,3,0,0,0,1-1q0.291-.527.527-1a2.038,2.038,0,0,1,.645-0.761,2.121,2.121,0,0,1,1.23-.293,13,13,0,0,1,.117-1.933q0.115-.76,1.522-0.761,0.936,0,.937.586a0.517,0.517,0,0,0,.586.586l0.234-.117,3.631-3.162V62.82a8.637,8.637,0,0,0-.293-2.4q-0.292-.994-0.644-2.05a18.507,18.507,0,0,1-.586-2.225,9.071,9.071,0,0,1,0-2.928L201,54.27h-5.154l-0.468.469a3.314,3.314,0,0,0,.468.351,1.189,1.189,0,0,0,.469.234l0.585-.117v1.64H192.33a3.306,3.306,0,0,1-1.991,1.288q-1.172.236-2.225,0.468a4.18,4.18,0,0,0-1.816.879,3.045,3.045,0,0,0-.761,2.4l-5.5,1.406,1.289,2.46h-0.469a3.543,3.543,0,0,1-.586-0.059,0.6,0.6,0,0,1-.468-0.527q-0.588,1.642-1.171,2.928a5.2,5.2,0,0,1-2.109,2.225c0,0.079-.02.117-0.058,0.117s-0.059.04-.059,0.117a0.337,0.337,0,0,0-.117.234,8.1,8.1,0,0,0-1.171,2.4,17.365,17.365,0,0,1-.937,2.4l-0.117.117v0.234l0.117,0.117a2.728,2.728,0,0,0,.468.761,2.864,2.864,0,0,1,.469.761v0.234a0.233,0.233,0,0,0,.058.176,0.243,0.243,0,0,1,.059.176,4,4,0,0,1-.527,1.991,4.225,4.225,0,0,0-.527,2.108v6.091a12.956,12.956,0,0,1-.7,2.167,1.74,1.74,0,0,1-1.757,1.113,0.474,0.474,0,0,0,.117.351,0.1,0.1,0,0,0,.117.117q0.936,1.054,1.874,2.108a3.745,3.745,0,0,1,.937,2.577v0.82a0.65,0.65,0,0,1-.585.7,1.427,1.427,0,0,0,.761.82,2.435,2.435,0,0,0,1,.234,0.46,0.46,0,0,0,.468-0.351,4.881,4.881,0,0,0,.176-0.7,2.453,2.453,0,0,1,.234-0.7,0.9,0.9,0,0,1,.879-0.351,1.577,1.577,0,0,1,.878.41,9.312,9.312,0,0,1,.761.644,1.048,1.048,0,0,0-.7.586v0.234c0,0.392.389,0.7,1.171,0.937a7.075,7.075,0,0,0,1.523.352,0.545,0.545,0,0,0,.644-0.469,3.377,3.377,0,0,0-.059-1.054,5.347,5.347,0,0,1-.117-1.054,0.6,0.6,0,0,1,.586-0.586,1.478,1.478,0,0,1,.82,1.347,1.241,1.241,0,0,0,.819,1.23,4.89,4.89,0,0,0,.7.469q0.585,0.351,1.289.7c0.468,0.235.9,0.451,1.288,0.645a2.265,2.265,0,0,0,.82.292,0.646,0.646,0,0,0,.234.352l0.234,0.234v3.514a1.656,1.656,0,0,1,.879-0.527,6.207,6.207,0,0,1,.878-0.059,13.145,13.145,0,0,1,3.221.469,2.2,2.2,0,0,1,1.816,2.342l0.468-1.054h2.577a1.079,1.079,0,0,0,.586-0.586c0.155,0,.448-0.018.878-0.058s0.721-.059.879-0.059h0A3.433,3.433,0,0,1,202.989,107.035Zm13-.41a0.473,0.473,0,0,1-.468.586c-0.235,0-.352-0.194-0.352-0.586s0.117-.585.352-0.585A0.473,0.473,0,0,1,215.99,106.625Zm-14.114-2.459a1.273,1.273,0,0,1-1.347,1.288v-0.585a10.178,10.178,0,0,1,.176-1.875,1.169,1.169,0,0,1,1.347-.937A16.261,16.261,0,0,1,201.876,104.166Zm4.275-.234a2.382,2.382,0,0,1,1.523-2.4,7.285,7.285,0,0,1,2.811-.644,4.275,4.275,0,0,1-.937,2.636,2.952,2.952,0,0,1-2.46,1.229H206.62a0.378,0.378,0,0,0-.234-0.351,0.371,0.371,0,0,1-.235-0.351v-0.117Zm-9.838-.82h0.117c0.077,0,.117-0.019.117-0.059s0.038-.059.117-0.059l0.234,0.118,0.469,0.468-0.469.469h0Zm-7.731-3.28,0.469,0.586h-0.469V99.832Zm44.04-4.627a0.39,0.39,0,0,1-.468.41c-0.158,0-.235-0.135-0.235-0.41s0.077-.41.235-0.41A0.391,0.391,0,0,1,232.622,95.206Zm-2.46-1H230.4c0.077,0,.117-0.018.117-0.059s0.038-.059.117-0.059a3.773,3.773,0,0,1,.586.059,0.9,0.9,0,0,1,.585.644h-1.64V94.21Zm3.046-10.893a0.378,0.378,0,0,1,.351.234,0.329,0.329,0,0,0,.234.234v0.586a0.647,0.647,0,0,1-.351-0.234,1.273,1.273,0,0,1-.234-0.351,0.33,0.33,0,0,1-.117-0.234h0Zm-4.1-1.523h0.469l-0.469.469V81.795Zm1.054-3.162a3.6,3.6,0,0,1-.292,1.113,0.967,0.967,0,0,1-.879.761l0.117-.82a3.7,3.7,0,0,0,.235-0.82,1.671,1.671,0,0,1,.234-0.7,0.473,0.473,0,0,1,.585.469h0Zm-0.7-1q0,0.527-.352.527a0.531,0.531,0,0,1,0-1.054Q229.46,77.109,229.46,77.637Zm3.631,0q0,0.527-.352.527a0.531,0.531,0,0,1,0-1.054Q233.092,77.109,233.091,77.637Zm4.8-.527h0.586v0.469h-0.586V77.109Zm-8.9-.527a0.442,0.442,0,0,1-.468.527q-0.352,0-.352-0.527t0.352-.527A0.442,0.442,0,0,1,228.991,76.582Zm2.811-1.464h0.352v0.469H231.8V75.118Zm-55.869-.878c0,0.117-.079.176-0.235,0.176-0.157.079-.234,0.02-0.234-0.176a0.236,0.236,0,0,1,.234-0.293A0.345,0.345,0,0,1,175.933,74.24Zm53.644-1.23h0.585V73.6h-0.585V73.01Zm-51.3-1.406q1.054-1.169,1.7-1.874t1.229-1.288a1.724,1.724,0,0,1,.82-0.586,5.553,5.553,0,0,1-.7,2.694,26.107,26.107,0,0,1-1.523,2.46h-0.469q-1.053,0-1.054-1.406h0Zm53.41-1.815a0.472,0.472,0,1,1-.468-0.527A0.442,0.442,0,0,1,231.685,69.789Zm0-1.581a0.469,0.469,0,1,1-.468-0.469A0.414,0.414,0,0,1,231.685,68.208Zm-25.534-5.154a1.271,1.271,0,0,1,.645.7,2.662,2.662,0,0,1,.175.937h-0.82v-1.64ZM205.1,61.063h0.7v1.523A3.687,3.687,0,0,1,205.332,62a1.181,1.181,0,0,1-.235-0.468V61.063Zm-0.351-1.171H205.1l-0.351.468V59.892ZM192.33,57.783h0.352v2.108H192.33V57.783Zm2.109,1.054h0.234a0.563,0.563,0,0,1,.527.351,1.561,1.561,0,0,1,.176.7h-0.937V58.838Zm78.837,49.486a3.09,3.09,0,0,1,1.4.41,1.515,1.515,0,0,1,.761.644c0.352,0.428.566,0.683,0.645,0.761h0.468c0.077-.157.214-0.468,0.41-0.937a3.086,3.086,0,0,1,.527-0.937h0.117a0.247,0.247,0,0,0,.176-0.058,0.229,0.229,0,0,1,.176-0.059,1.913,1.913,0,0,1,1.4.586h7.613v-1.406H286.16a2.133,2.133,0,0,1,1.581-.585h1.581q-0.236-.819.937-1t1.406-.176V104.4h1.522v1.054h0.352v-3.748a4.416,4.416,0,0,0,1.522-1.991,0.891,0.891,0,0,0,1.054.586,0.673,0.673,0,0,0,.7-0.645,6.961,6.961,0,0,0,.117-1.23,0.7,0.7,0,0,0-.761-0.586,0.9,0.9,0,0,1-.761-1.054,0.608,0.608,0,0,1,.527-0.527,5.687,5.687,0,0,0,1.112-.527,4.869,4.869,0,0,0,1.113-.937,2.183,2.183,0,0,0,.527-1.523,14.558,14.558,0,0,0-3.279.351,28.516,28.516,0,0,0-3.163.937,0.483,0.483,0,0,0-.293.176,0.483,0.483,0,0,1-.292.176,3.388,3.388,0,0,0,.175.82,4.168,4.168,0,0,1,.176.7H291.2a2.62,2.62,0,0,0-.644.234,2.193,2.193,0,0,1-.761.234,0.414,0.414,0,0,1-.469-0.468,1.2,1.2,0,0,1,.234-0.469,1.139,1.139,0,0,0,.235-0.586,0.43,0.43,0,0,0-.469-0.41,6.366,6.366,0,0,0-.7-0.059,4.919,4.919,0,0,0-.644.059,0.593,0.593,0,0,0-.527.41h-8.433a3.031,3.031,0,0,1-1.464-.527,15.9,15.9,0,0,1-1.757-1.23,9.265,9.265,0,0,1-1.523-1.523,2.443,2.443,0,0,1-.644-1.406,4.156,4.156,0,0,1,.469-1.874,8.464,8.464,0,0,0-.118-1.113q-0.117-.76-0.292-1.7t-0.293-1.757a9.3,9.3,0,0,1-.117-1.171V81.677a6.307,6.307,0,0,1,.234-1.757,6.4,6.4,0,0,0,.234-1.757,9.134,9.134,0,0,0-.351-2.518q-0.352-1.23-.586-2.518V70.433a8.762,8.762,0,0,0-.586-2.46,6.265,6.265,0,0,1-.468-2.343,13.265,13.265,0,0,1,.117-1.64,1.261,1.261,0,0,1,.937-1.171V58.955l-0.586-.351V53.8a1.122,1.122,0,0,1,.293-0.468,1.134,1.134,0,0,0,.293-0.468,4.822,4.822,0,0,1,.234-0.82,4.809,4.809,0,0,0,.235-0.586V48.53c0-.234.018-0.545,0.058-0.937s0.077-.82.117-1.288a11.255,11.255,0,0,1,.176-1.288,5.027,5.027,0,0,0,.117-0.82,0.912,0.912,0,0,1,.117-0.351l0.235-.468a3.447,3.447,0,0,1,.117-0.586,3.312,3.312,0,0,0,.117-0.7,2.844,2.844,0,0,0-.117-0.527,2.548,2.548,0,0,1-.117-0.527,1.247,1.247,0,0,1-.41.234,1.258,1.258,0,0,0-.41.234h-0.118l-0.234-.117a2.533,2.533,0,0,1,.586-1.933,2.355,2.355,0,0,0,.586-1.815c0-.077-0.021-0.351-0.059-0.82s-0.079-1-.117-1.581-0.079-1.151-.117-1.7-0.059-.937-0.059-1.171a2.675,2.675,0,0,0-.234-0.644,2.514,2.514,0,0,1-.234-0.644,0.632,0.632,0,0,1,.7-0.644c0.469-.038.742-0.059,0.82-0.059V30.024a0.484,0.484,0,0,0-.117-0.351c-0.079-.234-0.234-0.644-0.468-1.23s-0.392-.955-0.469-1.113c-0.079-.077-0.254-0.253-0.527-0.527a1.355,1.355,0,0,1-.41-0.527V23.934a0.474,0.474,0,0,0-.586-0.469,2.492,2.492,0,0,0-.585.176c-0.313.117-.547,0.216-0.7,0.293l-0.234.234-0.234.234A11.3,11.3,0,0,1,269,24.7a12.09,12.09,0,0,1-1.464.176,0.61,0.61,0,0,0-.292.41,1.906,1.906,0,0,0-.176.527v3.865l-0.351.351a2.481,2.481,0,0,1-1.172-1.464,1.345,1.345,0,0,0-1.522-.878q-2.228,0-2.226,2.343a2.9,2.9,0,0,0,.234,1.288,2.331,2.331,0,0,1,.235,1.054h-1.054c0,0.157.018,0.547,0.058,1.171a3.936,3.936,0,0,0,.176,1.171,0.645,0.645,0,0,0,.234.351l0.234,0.234c0,0.079-.02.313-0.058,0.7a1.061,1.061,0,0,0,.058.7,2.4,2.4,0,0,0,.469.937,2.435,2.435,0,0,1,.468.937v0.351a0.452,0.452,0,0,0,.059.293,0.247,0.247,0,0,1,.058.176,0.241,0.241,0,0,1-.058.176,0.238,0.238,0,0,0-.059.176V39.98a1.913,1.913,0,0,1-.644.586,8.166,8.166,0,0,1-.761.468,11.242,11.242,0,0,1,.41,1.171,10.041,10.041,0,0,0,.41,1.171,0.718,0.718,0,0,1,.351.176,0.472,0.472,0,0,1,.234.293,0.345,0.345,0,0,1,.117.234l-0.117.117a3.638,3.638,0,0,1-.527,1.23,2.9,2.9,0,0,0-.41.761c-0.157,0-.488-0.018-1-0.059a2.307,2.307,0,0,0-1,.059,2.232,2.232,0,0,0-.7.176,2.25,2.25,0,0,1-.7.176,2.028,2.028,0,0,0-.235.586,8.959,8.959,0,0,1,2.05.234,2.5,2.5,0,0,1,1.581,1.171L259.923,50.4a3.058,3.058,0,0,0,.176-0.937,0.831,0.831,0,0,0-.527-0.937,0.473,0.473,0,0,0-.469.586,2.393,2.393,0,0,0-.058,1.113q0.057,1,.058,1.23a7.578,7.578,0,0,0-.527.7,7.417,7.417,0,0,1-.527.7,3.6,3.6,0,0,1-.117.586,3.157,3.157,0,0,0-.117.7h5.036v1.874a0.929,0.929,0,0,0-.585.117c-0.079.079-.2-0.077-0.352-0.469a0.414,0.414,0,0,0-.468.469,3.077,3.077,0,0,0,0,1.23,11.238,11.238,0,0,1,.117,1.347,5.008,5.008,0,0,0-.761.176,1.41,1.41,0,0,1-.879.059l-0.234-.469a1.022,1.022,0,0,1-.117-0.468,1.757,1.757,0,0,1-.235-0.293,0.315,0.315,0,0,0-.234-0.176,8.508,8.508,0,0,0-.351.937,3.748,3.748,0,0,0-.234.937v0.468a1.686,1.686,0,0,1,.527.527,1.6,1.6,0,0,0,.527.527c-0.158.079-.41,0.216-0.762,0.41s-0.605.333-.761,0.41a0.338,0.338,0,0,1-.234.117,0.348,0.348,0,0,0-.234-0.117,7.366,7.366,0,0,0-.352-1.347q-0.351-1.112-.468-1.464a0.392,0.392,0,0,1-.352-0.176,0.315,0.315,0,0,0-.234-0.176v1.288a2.77,2.77,0,0,0,.293.7,2.919,2.919,0,0,1,.293.7c0,0.157-.041.547-0.117,1.171a1.565,1.565,0,0,0,.117,1.171,1.767,1.767,0,0,0,.175.644,0.607,0.607,0,0,0,.293.41H259.1a11.973,11.973,0,0,1,1.933,1.171q1.345,0.939,1.347,1.523a1.172,1.172,0,0,1-.41.937,7.3,7.3,0,0,1-.879.644,7.236,7.236,0,0,0-.878.644,1.307,1.307,0,0,0-.41,1.054,7.658,7.658,0,0,0,1.874-.234,3.141,3.141,0,0,0,1.64-1.054v0.234l0.117,0.234a0.237,0.237,0,0,1-.059.176,0.238,0.238,0,0,0-.058.176v0.234a3.8,3.8,0,0,1-.937.41,3.873,3.873,0,0,0-.937.41l-0.937.937-0.937.937-0.117.234,0.117,0.234a9.628,9.628,0,0,0,1.7-.586q0.76-.351,1.581-0.7v0.234l0.117,0.234a0.967,0.967,0,0,1-.468.879,6.574,6.574,0,0,1-1.054.527v2.811l-0.469.469a1.9,1.9,0,0,0-.527.176,1.927,1.927,0,0,1-.527.176c0,0.157.018,0.43,0.059,0.82a1.086,1.086,0,0,1-.059.7,2.159,2.159,0,0,1-.82,1.171q-0.7.587-1.405,1.288a13.1,13.1,0,0,0-1.23,1.406,1.471,1.471,0,0,0-.293,1.406,1.73,1.73,0,0,0,1.288.586,9.716,9.716,0,0,0,1.64.234h0.469a5.318,5.318,0,0,1-.293-0.937,4.927,4.927,0,0,1-.176-0.937,0.5,0.5,0,0,1,0-.469,1.048,1.048,0,0,0,.117-0.468,2.035,2.035,0,0,0,.586-0.234,0.619,0.619,0,0,1,.586-0.117,2.52,2.52,0,0,1,.7.7,6.665,6.665,0,0,1,.82,1.171v0.469a1.412,1.412,0,0,0-.468.176,1.42,1.42,0,0,1-.469.176v0.468a2.169,2.169,0,0,0,.41.293c0.194,0.117.37,0.216,0.527,0.293l0.352-.117v2.928h-0.352a1.489,1.489,0,0,1-.41-0.761,6.055,6.055,0,0,0-.527-1.113,1,1,0,0,0-.058-0.293,0.907,0.907,0,0,1-.059-0.293,9,9,0,0,0-1.7.234,1.092,1.092,0,0,0-1.113.937,1.233,1.233,0,0,0,.586.82q0.585,0.469,1.288,1a7.7,7.7,0,0,1,1.289,1.23A2.341,2.341,0,0,1,261.8,92.1a5.3,5.3,0,0,1-1.581-.234,1.263,1.263,0,0,1-.761-1.406,0.825,0.825,0,0,0-.82.878,10.834,10.834,0,0,0-.117,1.347,0.844,0.844,0,0,0,.292.7,3.486,3.486,0,0,0,.645.41c0.234,0.117.448,0.216,0.644,0.293a0.458,0.458,0,0,1,.293.469v4.217a1.023,1.023,0,0,1-1.055,1,2.824,2.824,0,0,0-1.288.41,3.274,3.274,0,0,0,.059.469,0.553,0.553,0,0,1-.059.468l-0.234.235a0.335,0.335,0,0,0-.117.234,0.1,0.1,0,0,1-.117.117v0.586a7.44,7.44,0,0,0,.058.761,0.463,0.463,0,0,0,.41.527,1.134,1.134,0,0,0,.586-0.234,3.383,3.383,0,0,0,.468-0.352,0.339,0.339,0,0,0-.058-0.409,1.017,1.017,0,0,1-.176-0.41,1.686,1.686,0,0,1,1,.175,2.34,2.34,0,0,1,.175,1.23,2.947,2.947,0,0,1-.937,2.343h0.469a0.744,0.744,0,0,0,.7-0.235,4.227,4.227,0,0,1,.7-0.819,5.425,5.425,0,0,0,.7-1.172q0.466-.936.586-1.171v0.468q0,0.352-.176,1.757c-0.117.937-.176,1.485-0.176,1.64l-0.117.469a0.9,0.9,0,0,0,1.054-.7,0.751,0.751,0,0,1,.82-0.7,4.938,4.938,0,0,1,1.581.469,5.028,5.028,0,0,1,1.465.82,3.174,3.174,0,0,1,.468-1.055,1.315,1.315,0,0,1,.82-0.819,3.5,3.5,0,0,1,.82.409c0.468,0.275.82,0.489,1.054,0.645a14.154,14.154,0,0,1,1.464.82,1.544,1.544,0,0,1,.41,1.522h0A4.164,4.164,0,0,1,273.276,108.324Zm15.578-3.924,0.468,0.469a0.712,0.712,0,0,1-.176.351,0.47,0.47,0,0,1-.292.234H288.5Zm-23.66-.82-0.469.469a1.11,1.11,0,0,1-.585-1.172,1,1,0,0,1,1.054.7h0Zm25.885-1.054c0,0.313-.079.468-0.234,0.468-0.235,0-.352-0.155-0.352-0.468s0.117-.469.352-0.469C291,102.057,291.079,102.215,291.079,102.526Zm-28.93-5.154c0,0.313-.079.469-0.235,0.469-0.234,0-.351-0.156-0.351-0.469s0.117-.469.351-0.469C262.07,96.9,262.149,97.061,262.149,97.372Zm4.568-3.748h0.351v0.468h-0.351V93.624Zm1.874-7.613h-1.172a0.987,0.987,0,0,1,1.172-1.054v1.054Zm-3.514-3.865c0,0.313-.117.469-0.352,0.469s-0.351-.156-0.351-0.469,0.117-.468.351-0.468S265.077,81.835,265.077,82.146Zm-3.631-2.225a1.954,1.954,0,0,1-.117.586,0.543,0.543,0,0,1-.586.351h-0.117l-0.234-.117c0.155-.234.311-0.487,0.468-0.761a1.893,1.893,0,0,1,.586-0.644h0v0.586Zm10.6-1.288a0.34,0.34,0,0,1-.293-0.234c0-.156.117-0.234,0.351-0.234s0.273,0.079.117,0.234C272.221,78.555,272.163,78.632,272.046,78.632Zm-2.167-3.514h0.586l-0.586.351V75.118Zm-0.82-11.01h0.234a0.631,0.631,0,0,1,.469.351,1.268,1.268,0,0,1,.234.7h-0.937V64.108ZM269.7,61.18a0.681,0.681,0,0,1,.41.586h-1.64a1.056,1.056,0,0,1,.176-0.527,0.5,0.5,0,0,1,.41-0.293A1.453,1.453,0,0,1,269.7,61.18Zm-9.428-9.312a0.339,0.339,0,0,1-.352.41c-0.157,0-.234-0.136-0.234-0.41s0.077-.41.234-0.41A0.34,0.34,0,0,1,260.275,51.869Zm5.27-.468a0.356,0.356,0,1,1-.351-0.41A0.338,0.338,0,0,1,265.545,51.4Zm5.388-14.7H271.4l-0.469.468V36.7Zm-1.64-2.167q0,0.176-.234.176c-0.157.079-.234,0.02-0.234-0.176s0.077-.253.234-0.176Q269.293,34.358,269.293,34.534Zm4.334-1.64q0,0.527-.351.527t-0.352-.527q0-.527.352-0.527T273.627,32.894Zm-4.8-2.87h0.234c0.077,0.079.234,0.234,0.469,0.468a0.961,0.961,0,0,1,.351.586,1.431,1.431,0,0,1-.586.234,3.7,3.7,0,0,0-.7.234h-0.7l0.117-.469a2.647,2.647,0,0,1,.586-1.054h0.234Zm0.585-2.46V27.33a0.1,0.1,0,0,0,.118-0.117,0.337,0.337,0,0,1,.117-0.234l0.234-.234,0.234-.117a0.333,0.333,0,0,0,.234.117h0.118a14.77,14.77,0,0,1,1,1.815,4.831,4.831,0,0,1,.527,2.05,0.8,0.8,0,0,1-1-.644,2.975,2.975,0,0,0-.527-1.347A1.187,1.187,0,0,0,270,28.15a6.693,6.693,0,0,1-.586-0.469V27.565ZM263.2,28.677q0,0.527-.352.527a0.531,0.531,0,0,1,0-1.054Q263.2,28.15,263.2,28.677Zm5.388-.527,0.468,0.468h-0.468V28.15Zm62.2,82.4a7.645,7.645,0,0,0,1.991-.176,6.383,6.383,0,0,0,2.108-.409,1.452,1.452,0,0,0,.761-0.762,10.11,10.11,0,0,0,.352-1.23,9.1,9.1,0,0,1,.761-1.932,2.912,2.912,0,0,1,1.171-.879,1.218,1.218,0,0,0,.82-0.878l-1.288-.937,1.405-1.757a2.491,2.491,0,0,1,.879.82,2.044,2.044,0,0,1,.41,1.171,0.8,0.8,0,0,0,.058.352,0.523,0.523,0,0,1,.059.234V104.4a3.251,3.251,0,0,1-.117.7,3.464,3.464,0,0,0-.117.585q0,0.353.7,0.352a1.989,1.989,0,0,0,1.816-1.113q0.76-.993,1.581-2.225t1.523-2.343q0.7-1.112.937-1.464l-0.352-.586q-0.351.236-1.464,0.937a11.689,11.689,0,0,1-1.7.937,0.1,0.1,0,0,1-.117.118,0.732,0.732,0,0,1-.937-0.7,0.87,0.87,0,0,1,.234-0.937,2.607,2.607,0,0,1,.878-0.351,10.322,10.322,0,0,0,1.055-.293,1.257,1.257,0,0,0,.761-0.879,7.652,7.652,0,0,1-.234-0.937,10.983,10.983,0,0,1-.176-1.288q-0.06-.7-0.117-1.23a7.524,7.524,0,0,1-.059-0.761,1.107,1.107,0,0,1,.293-0.879,6.507,6.507,0,0,1,.527-0.761V90.93a0.235,0.235,0,0,1,.059-0.176,0.241,0.241,0,0,0,.058-0.176c0-.545-0.391-0.82-1.171-0.82h-0.234a5.066,5.066,0,0,1-.176.761,5.571,5.571,0,0,1-.293.878,2.1,2.1,0,0,0-.644.351,1.713,1.713,0,0,1-.761.351q-0.118.236-.41,1.054t-0.41,1.054a1.008,1.008,0,0,1-.41-0.176,1.055,1.055,0,0,0-.527-0.176l-0.117.117h0.7a2.191,2.191,0,0,0,.7-0.117c-1.094.157-1.621,0.293-1.581,0.41s0.018,0.176-.059.176a1.023,1.023,0,0,1-.468-0.117,0.787,0.787,0,0,1-.351-0.059,0.538,0.538,0,0,0-.235-0.059l-0.468-.117a2.569,2.569,0,0,0-1,.41,3.027,3.027,0,0,1-1.347.41h-0.117a1.421,1.421,0,0,1-.644-0.234c-0.275-.156-0.489-0.273-0.644-0.351a2.714,2.714,0,0,1-1.347,1.7,9.35,9.35,0,0,1-2.226.82q-1.23.294-2.518,0.469a5.565,5.565,0,0,0-2.225.761,4.35,4.35,0,0,1-1.757-.878,3.007,3.007,0,0,1-.469-1.581,5.221,5.221,0,0,1,.235-2.694,5.64,5.64,0,0,0,.234-2.811V89.993a1.053,1.053,0,0,1-.937.469,4.049,4.049,0,0,0-1.406,0,3.036,3.036,0,0,1,.059-1.874,2.624,2.624,0,0,1,.7-0.761,2.974,2.974,0,0,0,.7-0.7,3.167,3.167,0,0,0,.176-1.815,0.93,0.93,0,0,0-.117-0.351,0.338,0.338,0,0,0-.234-0.234l-0.235.117h-0.234a1.546,1.546,0,0,0-.234,1.347q0.232,0.412-.586.527a1.221,1.221,0,0,1-1-.527,1.773,1.773,0,0,1-.41-1.113,1.536,1.536,0,0,1,.234-1.288,1.739,1.739,0,0,1,.82-0.469,8.489,8.489,0,0,0,.937-0.293,1.292,1.292,0,0,0,.7-0.878,1.044,1.044,0,0,0-.235-0.879c-0.234-.351-0.508-0.721-0.819-1.113a13.632,13.632,0,0,1-.879-1.23,1.3,1.3,0,0,1-.176-1.23,1.574,1.574,0,0,1,1.055-.878c0.468-.117.9-0.214,1.288-0.293a3.784,3.784,0,0,0,1.113-.41,1.044,1.044,0,0,0,.527-1,1.365,1.365,0,0,0-.762-1.171,16.8,16.8,0,0,0-1.639-.879,5.769,5.769,0,0,1-1.406-.878,0.889,0.889,0,0,1-.176-1.171,2.193,2.193,0,0,1,1-1.054q0.879-.585,1.874-1.171a17.175,17.175,0,0,0,1.757-1.171,1.335,1.335,0,0,0,.644-1.288,2.61,2.61,0,0,0-.82-1.7A4.376,4.376,0,0,0,324.3,63.7a5.932,5.932,0,0,0-1.874-.293,3.761,3.761,0,0,0-1.7.351,4.691,4.691,0,0,1,.058-0.644,5.039,5.039,0,0,0,.059-0.527l0.117-.117a0.33,0.33,0,0,1-.117-0.234l-0.117-.117A0.348,0.348,0,0,0,320.488,62a0.887,0.887,0,0,1-.351-0.117,1.91,1.91,0,0,1-.586-0.117l-1.757-3.4a2.134,2.134,0,0,1-.937.176,2.479,2.479,0,0,1-1.054-.059c-0.157.079-.333-0.018-0.527-0.293a0.78,0.78,0,0,0-.527-0.41l-0.468-.234c0,0.079-.021.117-0.059,0.117s-0.058.04-.058,0.117V57.9a6.79,6.79,0,0,0-1.465,1.991,5.4,5.4,0,0,0-.468,1.816,14.634,14.634,0,0,0,0,1.874,15.78,15.78,0,0,1-.059,2.284,1.986,1.986,0,0,1-.527.644,0.847,0.847,0,0,0-.41.761,12.488,12.488,0,0,0-.351,3.221,23.041,23.041,0,0,1-.234,3.455q0,1.054-.059,3.631t-0.058,5.446q0,2.871.058,5.446t0.059,3.514q0.115,1.29.234,2.05c0.077,0.509.155,1.054,0.234,1.64a11.241,11.241,0,0,1,.117,1.347,14.181,14.181,0,0,1,.527,2.518,22.393,22.393,0,0,1,.293,2.518,4.883,4.883,0,0,1,3.1,1.055,6.767,6.767,0,0,1,2.284,2.342c-0.079-.858.176-1.327,0.761-1.4a11.52,11.52,0,0,0,1.7-.352q0.115,0.939.234,1.991a9.824,9.824,0,0,0,.351,1.816,2.332,2.332,0,0,0,.879,1.23,3.041,3.041,0,0,0,3.279-.469,2.157,2.157,0,0,1,1.347-.7,1.666,1.666,0,0,1,1.523.7,4.29,4.29,0,0,1,.937,1.757h0A11.584,11.584,0,0,0,330.8,110.549Zm0.585-2.05a0.3,0.3,0,0,1,.586,0q0,0.585-.586,0h0Zm-3.4-2.225c-0.157.079-.234,0-0.234-0.234s0.077-.352.234-0.352a0.423,0.423,0,0,1,0,.586h0Zm6.852-3.748a7.737,7.737,0,0,1,0,1.347,7.584,7.584,0,0,1-.234,1.405,1,1,0,0,1-.293.645,3.737,3.737,0,0,1-1.815-.937,1.407,1.407,0,0,1-.41-1.23,1.723,1.723,0,0,1,.82-1.113,3.925,3.925,0,0,1,1.757-.586C334.738,101.981,334.8,102.136,334.836,102.526Zm-6.852-3.748,0.586-.234v0.7Zm17.1-10.014c0.077,0.2.194,0.216,0.351,0.059a0.269,0.269,0,0,0,.059-0.293c-0.04-.117-0.137-0.135-0.293-0.059C345.045,88.471,345.006,88.57,345.085,88.764ZM321.6,61.941a0.5,0.5,0,0,0,.527.527c0.234,0,.331-0.176.293-0.527a0.463,0.463,0,0,0-.41-0.527A0.393,0.393,0,0,0,321.6,61.941Zm-2.284-11.478a1.094,1.094,0,0,0,1.406.527,5.645,5.645,0,0,0,1.7-.41,5.741,5.741,0,0,0,1.171-.7q0.528-.409,1.054-0.82a6.16,6.16,0,0,1,1.347-.761,1.966,1.966,0,0,1,.586.117,3.759,3.759,0,0,0,.937.234,4.965,4.965,0,0,1,.644.059,4.7,4.7,0,0,0,.527.059A1.3,1.3,0,0,0,329.741,48a10.688,10.688,0,0,0,.82-1.64,17.577,17.577,0,0,0,.586-1.7,7.73,7.73,0,0,1,.351-1.054,5.679,5.679,0,0,1-.7-1.054,7.587,7.587,0,0,1-.586-1.171c0-.234.038-0.683,0.117-1.347s0.117-1.072.117-1.23l-0.937.117a3.947,3.947,0,0,0,.234-2.46,0.238,0.238,0,0,0-.175.059,0.239,0.239,0,0,1-.176.058,0.338,0.338,0,0,1-.234.117,1.136,1.136,0,0,0-.469.293c-0.234.2-.391,0.333-0.468,0.41a0.686,0.686,0,0,1-.644-0.293,5.549,5.549,0,0,1-.352-0.7,3.056,3.056,0,0,0-.41-0.7,0.851,0.851,0,0,0-.7-0.293,4.406,4.406,0,0,1-1,.293,0.882,0.882,0,0,0-.644.644A3.694,3.694,0,0,1,324,35.764c-0.157-.156-0.313-0.311-0.468-0.468s-0.313-.311-0.469-0.468a12.068,12.068,0,0,1-1.464-.176q-1.115-.176-2.225-0.41t-2.05-.41q-0.939-.176-1.054-0.176a2.029,2.029,0,0,0-1.054,1,22.7,22.7,0,0,0-1.347,2.167,24.079,24.079,0,0,0-1.113,2.284,5.854,5.854,0,0,0-.469,1.347,20.535,20.535,0,0,0,1.23,4.919,27.261,27.261,0,0,0,2.284,4.8,0.312,0.312,0,0,0,.176.234,0.384,0.384,0,0,0,.41,0h0.351a2.273,2.273,0,0,0,.644-0.293,2.319,2.319,0,0,1,.645-0.293A1.121,1.121,0,0,1,319.317,50.463Zm8.375-10.014c-0.117,0-.176-0.117-0.176-0.351-0.079-.156,0-0.234.234-0.234s0.273,0.079.117,0.234C327.867,40.332,327.809,40.449,327.692,40.449Zm-10.659-2.577c0.039,0.313-.058.468-0.293,0.468-0.157.079-.254-0.038-0.293-0.351a0.519,0.519,0,0,1,.176-0.586A0.43,0.43,0,0,1,317.033,37.872Zm65.661,69.163a2.48,2.48,0,0,1,.761,1.113q0.175,0.585.352,1.113a0.812,0.812,0,0,0,.878.527,2.844,2.844,0,0,0,.937-1.289,6.381,6.381,0,0,0,.7-1.288l1.933-1.933a8.331,8.331,0,0,1,1.347-1.229h0.351a1.879,1.879,0,0,1,.586,1.229q0.351,1.23.585,1.933v0.351a5.392,5.392,0,0,0-.293.879,4.085,4.085,0,0,0-.175.878,0.414,0.414,0,0,0,.468.469,3.783,3.783,0,0,0,.586-1.64,10.664,10.664,0,0,0,.058-1.933q-0.06-.993-0.175-1.815a9.492,9.492,0,0,1-.117-1.288,1.6,1.6,0,0,1,1.581.82,6.694,6.694,0,0,1,.585,1.756q0.177,0.939.293,1.757a0.756,0.756,0,0,0,.7.82h0.117a4.478,4.478,0,0,0,.937-1c0.234-.352.469-0.683,0.7-1a4.084,4.084,0,0,1,.82-0.82,2.573,2.573,0,0,1,1.522-.351h0.118a7.387,7.387,0,0,0,.527,1.522,1.121,1.121,0,0,0,1.112.586,1.6,1.6,0,0,0,1.172-.7,10.938,10.938,0,0,0,1.112-1.639,18.188,18.188,0,0,0,.879-1.757,3.54,3.54,0,0,0,.351-1.172h0.82V105.1h0.82a2.043,2.043,0,0,0,.586-0.234,1.047,1.047,0,0,1,.468-0.118v-3.279l1.054,2.108a1.494,1.494,0,0,1,.644-1.054,10.423,10.423,0,0,1,1.113-.644,4.01,4.01,0,0,0,1.054-.762,1.743,1.743,0,0,0,.469-1.288,1.611,1.611,0,0,0-.586-1.23,1.725,1.725,0,0,1-.586-1.347,2.217,2.217,0,0,1,.176-0.879q0.176-.409.879-0.176a2.272,2.272,0,0,1,1.054,1.171,3.673,3.673,0,0,1,.468,1.523,3.815,3.815,0,0,0,.235-0.878,1.829,1.829,0,0,1,.234-0.761,1.449,1.449,0,0,1,.293-0.527A1.444,1.444,0,0,0,413.5,96.2c0-.311-0.058-0.937-0.175-1.874s-0.176-1.523-.176-1.757a14,14,0,0,1,1.523.058,6.837,6.837,0,0,0,.878.059,4.336,4.336,0,0,0,.937-0.117c0.352-.077.917-0.234,1.7-0.469a0.343,0.343,0,0,0,.117-0.234,0.559,0.559,0,0,0-.293-0.586,3.22,3.22,0,0,0-.7-0.176,2.988,2.988,0,0,1-.7-0.176,0.553,0.553,0,0,1-.293-0.586,2.637,2.637,0,0,1,.7-2.108,3.524,3.524,0,0,1,1.581-.761q0.879-.176,1.582-0.293a0.751,0.751,0,0,0,.7-0.82,0.735,0.735,0,0,0-.644-0.82,1.406,1.406,0,0,1-1-.7q0.818-1.054,1.288-1.757a12.245,12.245,0,0,0,.761-1.288,4.557,4.557,0,0,0,.41-1.347,14.267,14.267,0,0,0,.117-2.05,11.662,11.662,0,0,0-.527-3.69,33.1,33.1,0,0,1-1-3.924h-1.523a6.028,6.028,0,0,1-.117,1.171,0.652,0.652,0,0,1-.7.586h-0.234a0.1,0.1,0,0,1-.117-0.117c0-.077-0.04-0.331-0.117-0.761a6.731,6.731,0,0,0-.41-1.347,12.7,12.7,0,0,0-.586-1.23,0.815,0.815,0,0,0-.644-0.527l-0.234.117c-0.079.157-.176,0.333-0.293,0.527s-0.216.371-.293,0.527v0.351a4.11,4.11,0,0,0,.761,1.815,6.813,6.813,0,0,0,1.347,1.7l-3.279,3.045H413.5V68.208a3,3,0,0,0-1.112-2.284,14.566,14.566,0,0,0-2.577-1.815,19.765,19.765,0,0,0-2.928-1.347q-1.467-.527-2.284-0.878a1.806,1.806,0,0,1-1.289-1.347,3,3,0,0,0-1.288-1.7L400.5,60.36a5.125,5.125,0,0,0-.82-1.464,1.836,1.836,0,0,0-1.522-.761l-0.352.117a3.477,3.477,0,0,0-.41,1.054,0.771,0.771,0,0,1-.761.7,1.484,1.484,0,0,1-1.288-1.171,7.534,7.534,0,0,0-.586-1.288h-0.586a2.747,2.747,0,0,0-.527.059,3.2,3.2,0,0,1-.644.059,3.41,3.41,0,0,1-.82.117V57.9a1.249,1.249,0,0,1,1.464.937,9.506,9.506,0,0,1,.176,1.757,18.624,18.624,0,0,0-1.991.059,9.082,9.082,0,0,1-1.288.059,4.783,4.783,0,0,1,.058-0.878,2.97,2.97,0,0,0,.059-0.586,1.136,1.136,0,0,0-.176-0.586q-0.175-.291-0.527-0.879a3.812,3.812,0,0,0-.879,1.347,2.406,2.406,0,0,1-1.112,1.23,1.433,1.433,0,0,1-.879-0.586,1.811,1.811,0,0,1-.175-0.82,3.224,3.224,0,0,1,.292-1.347,3.514,3.514,0,0,0,.293-1.464,0.842,0.842,0,0,0-.468-0.82,14.745,14.745,0,0,1-1.347,2.225,3.424,3.424,0,0,1-2.284.468c0,0.157.018,0.723,0.058,1.7s0.117,2.011.235,3.1a15.538,15.538,0,0,0,.644,3.1,2.915,2.915,0,0,0,1.171,1.815,2.711,2.711,0,0,0,.586-1,3.207,3.207,0,0,0,.234-1,0.813,0.813,0,0,1,.7.644,1.683,1.683,0,0,1,0,.878L387.5,66.8c0.156-.234.352-0.545,0.586-0.937a2.551,2.551,0,0,0,.351-0.7,1.817,1.817,0,0,0-.468-0.82,2.338,2.338,0,0,1-.469-0.7,0.829,0.829,0,0,1,.117-0.7,2.051,2.051,0,0,0,.235-0.586,0.1,0.1,0,0,1,.117-0.117,0.338,0.338,0,0,0,.234-0.117l0.234-.234a6.606,6.606,0,0,0,.7.586,0.947,0.947,0,0,1,.469.586v4.217q0,0.821,1.346,1.347a18.494,18.494,0,0,0,3.1.878q1.758,0.351,3.338.527t2.167,0.293a4.15,4.15,0,0,1,1.64,1q0.818,0.763,1.581,1.523a18.89,18.89,0,0,0,1.406,1.288,0.871,0.871,0,0,0,1,.293,25.518,25.518,0,0,0,1.64,2.343,3.031,3.031,0,0,1,.586,1.991,4.123,4.123,0,0,1-.586,1.991,3.784,3.784,0,0,0-.585,1.523,1.476,1.476,0,0,0,.351,1c0.234,0.275.468,0.527,0.7,0.761s0.468,0.489.7,0.761a1.652,1.652,0,0,1,.352,1.113,9.656,9.656,0,0,1-.176,1.991q-0.175.821-.41,2.108l-0.234.117a0.828,0.828,0,0,1-.82-0.586q-0.235-.585-0.527-1.288a4.032,4.032,0,0,0-.878-1.288,2.573,2.573,0,0,0-1.874-.586h-0.235a3.6,3.6,0,0,1,.352,1.7,9.326,9.326,0,0,0-.117,1.933,2.979,2.979,0,0,1-1.055-.176,1.052,1.052,0,0,1-.468-1.113,2.191,2.191,0,0,0-1.7.7,4.207,4.207,0,0,0-.937,1.7,11.777,11.777,0,0,0-.41,1.991,14.123,14.123,0,0,0-.118,1.581,2.378,2.378,0,0,0-1.054.117q-0.117.118-.937-1.171-0.587,1.054-1.054,1.874a5.4,5.4,0,0,1-1.054,1.347,3.507,3.507,0,0,1-1.523.761,10.415,10.415,0,0,1-2.459.234q-3.048,0-6.559-.117a27.118,27.118,0,0,1-6.442-.937q-1.994-.585-3.924-1.288t-3.807-1.288a2.012,2.012,0,0,1-1.405-1.757,20.421,20.421,0,0,0-.7-2.46,3.147,3.147,0,0,0-1.054-1.171,7.046,7.046,0,0,1-1.054-.761,2.864,2.864,0,0,1-.762-1.23,8.766,8.766,0,0,1-.293-2.694V83.786q1.054-1.054,1.582-1.64a3.927,3.927,0,0,0,.527-2.46,4.265,4.265,0,0,0-.293-1.64,3.615,3.615,0,0,1-.293-1.406,0.9,0.9,0,0,1,.351-0.879,3.9,3.9,0,0,1,.879-0.293c0.351-.077.721-0.156,1.113-0.234a1.37,1.37,0,0,0,.937-0.82q0.232-.467.82-1.464a10.231,10.231,0,0,1,.7-1.113l1.406-.351a3,3,0,0,0,1-1q0.291-.527.527-1a2.038,2.038,0,0,1,.645-0.761,2.121,2.121,0,0,1,1.23-.293,13,13,0,0,1,.117-1.933q0.115-.76,1.522-0.761,0.936,0,.937.586a0.517,0.517,0,0,0,.586.586l0.234-.117,3.631-3.162V62.82a8.637,8.637,0,0,0-.293-2.4q-0.292-.994-0.644-2.05a18.322,18.322,0,0,1-.585-2.225,9.014,9.014,0,0,1,0-2.928L380.7,54.27h-5.154l-0.468.469a3.314,3.314,0,0,0,.468.351,1.189,1.189,0,0,0,.469.234l0.585-.117v1.64h-4.568a3.306,3.306,0,0,1-1.991,1.288q-1.172.236-2.225,0.468a4.18,4.18,0,0,0-1.816.879,3.045,3.045,0,0,0-.761,2.4l-5.5,1.406,1.289,2.46h-0.469a3.543,3.543,0,0,1-.586-0.059,0.6,0.6,0,0,1-.468-0.527q-0.588,1.642-1.171,2.928a5.2,5.2,0,0,1-2.109,2.225c0,0.079-.02.117-0.058,0.117s-0.059.04-.059,0.117a0.337,0.337,0,0,0-.117.234,8.1,8.1,0,0,0-1.171,2.4,17.365,17.365,0,0,1-.937,2.4l-0.117.117v0.234l0.117,0.117a2.728,2.728,0,0,0,.468.761,2.864,2.864,0,0,1,.469.761v0.234a0.233,0.233,0,0,0,.058.176,0.243,0.243,0,0,1,.059.176,4,4,0,0,1-.527,1.991,4.225,4.225,0,0,0-.527,2.108v6.091a12.956,12.956,0,0,1-.7,2.167,1.74,1.74,0,0,1-1.757,1.113,0.474,0.474,0,0,0,.117.351,0.1,0.1,0,0,0,.117.117q0.936,1.054,1.874,2.108a3.745,3.745,0,0,1,.937,2.577v0.82a0.65,0.65,0,0,1-.585.7,1.427,1.427,0,0,0,.761.82,2.435,2.435,0,0,0,1,.234,0.46,0.46,0,0,0,.468-0.351,4.881,4.881,0,0,0,.176-0.7,2.453,2.453,0,0,1,.234-0.7,0.9,0.9,0,0,1,.879-0.351,1.577,1.577,0,0,1,.878.41,9.312,9.312,0,0,1,.761.644,1.048,1.048,0,0,0-.7.586v0.234c0,0.392.389,0.7,1.171,0.937a7.088,7.088,0,0,0,1.523.352,0.545,0.545,0,0,0,.644-0.469,3.377,3.377,0,0,0-.059-1.054,5.347,5.347,0,0,1-.117-1.054,0.6,0.6,0,0,1,.586-0.586,1.478,1.478,0,0,1,.82,1.347,1.241,1.241,0,0,0,.819,1.23,4.89,4.89,0,0,0,.7.469q0.585,0.351,1.289.7c0.468,0.235.9,0.451,1.288,0.645a2.265,2.265,0,0,0,.82.292,0.646,0.646,0,0,0,.234.352l0.234,0.234v3.514a1.656,1.656,0,0,1,.879-0.527,6.207,6.207,0,0,1,.878-0.059,13.145,13.145,0,0,1,3.221.469,2.2,2.2,0,0,1,1.816,2.342l0.468-1.054h2.577a1.079,1.079,0,0,0,.586-0.586c0.155,0,.448-0.018.878-0.058s0.721-.059.879-0.059h0A3.433,3.433,0,0,1,382.694,107.035Zm13-.41a0.473,0.473,0,0,1-.468.586c-0.235,0-.352-0.194-0.352-0.586s0.117-.585.352-0.585A0.473,0.473,0,0,1,395.7,106.625Zm-14.114-2.459a1.273,1.273,0,0,1-1.347,1.288v-0.585a10.178,10.178,0,0,1,.176-1.875,1.169,1.169,0,0,1,1.347-.937A16.261,16.261,0,0,1,381.581,104.166Zm4.275-.234a2.382,2.382,0,0,1,1.523-2.4,7.285,7.285,0,0,1,2.811-.644,4.275,4.275,0,0,1-.937,2.636,2.952,2.952,0,0,1-2.46,1.229h-0.468a0.378,0.378,0,0,0-.234-0.351,0.371,0.371,0,0,1-.235-0.351v-0.117Zm-9.838-.82h0.117c0.077,0,.117-0.019.117-0.059s0.038-.059.117-0.059l0.234,0.118,0.469,0.468-0.469.469h0Zm-7.731-3.28,0.469,0.586h-0.469V99.832Zm44.04-4.627a0.39,0.39,0,0,1-.468.41c-0.158,0-.235-0.135-0.235-0.41s0.077-.41.235-0.41A0.391,0.391,0,0,1,412.327,95.206Zm-2.46-1H410.1c0.077,0,.117-0.018.117-0.059s0.038-.059.117-0.059a3.773,3.773,0,0,1,.586.059,0.9,0.9,0,0,1,.585.644h-1.64V94.21Zm3.046-10.893a0.378,0.378,0,0,1,.351.234,0.329,0.329,0,0,0,.234.234v0.586a0.647,0.647,0,0,1-.351-0.234,1.273,1.273,0,0,1-.234-0.351,0.33,0.33,0,0,1-.117-0.234h0Zm-4.1-1.523h0.469l-0.469.469V81.795Zm1.054-3.162a3.6,3.6,0,0,1-.292,1.113,0.967,0.967,0,0,1-.879.761l0.117-.82a3.7,3.7,0,0,0,.235-0.82,1.671,1.671,0,0,1,.234-0.7,0.473,0.473,0,0,1,.585.469h0Zm-0.7-1q0,0.527-.352.527a0.531,0.531,0,0,1,0-1.054Q409.166,77.109,409.165,77.637Zm3.631,0q0,0.527-.352.527a0.531,0.531,0,0,1,0-1.054Q412.8,77.109,412.8,77.637Zm4.8-.527h0.586v0.469H417.6V77.109Zm-8.9-.527a0.442,0.442,0,0,1-.468.527q-0.353,0-.352-0.527t0.352-.527A0.442,0.442,0,0,1,408.7,76.582Zm2.811-1.464h0.352v0.469h-0.352V75.118Zm-55.869-.878c0,0.117-.079.176-0.235,0.176-0.157.079-.234,0.02-0.234-0.176a0.236,0.236,0,0,1,.234-0.293A0.345,0.345,0,0,1,355.638,74.24Zm53.644-1.23h0.585V73.6h-0.585V73.01ZM357.98,71.6q1.054-1.169,1.7-1.874t1.229-1.288a1.724,1.724,0,0,1,.82-0.586,5.553,5.553,0,0,1-.7,2.694,26.107,26.107,0,0,1-1.523,2.46h-0.469q-1.053,0-1.054-1.406h0Zm53.41-1.815a0.472,0.472,0,1,1-.468-0.527A0.442,0.442,0,0,1,411.39,69.789Zm0-1.581a0.469,0.469,0,1,1-.468-0.469A0.414,0.414,0,0,1,411.39,68.208Zm-25.534-5.154a1.271,1.271,0,0,1,.645.7,2.662,2.662,0,0,1,.175.937h-0.82v-1.64ZM384.8,61.063h0.7v1.523A3.687,3.687,0,0,1,385.037,62a1.181,1.181,0,0,1-.235-0.468V61.063Zm-0.351-1.171H384.8l-0.351.468V59.892Zm-12.416-2.108h0.352v2.108h-0.352V57.783Zm2.109,1.054h0.234a0.563,0.563,0,0,1,.527.351,1.561,1.561,0,0,1,.176.7h-0.937V58.838Z"/>
</svg>
